<?xml version="1.0" encoding="utf-8"?>
<!-- Generator: Adobe Illustrator 21.0.0, SVG Export Plug-In . SVG Version: 6.00 Build 0)  -->
<svg version="1.1" id="Layer_1" xmlns="http://www.w3.org/2000/svg" xmlns:xlink="http://www.w3.org/1999/xlink" x="0px" y="0px"
	 viewBox="0 0 500 800" style="enable-background:new 0 0 500 800;" xml:space="preserve">
<style type="text/css">
	.st0{fill:#50B958;}
	.st1{font-family:'Cabin';}
	.st2{font-size:5.7849px;}
	.st3{font-family:'Cabin';}
	.st4{font-size:12px;}
	.st5{font-size:10px;}
	.st6{font-family:'Cabin';}
	.st7{fill:#50B958;stroke:#50B958;stroke-width:0.5;stroke-miterlimit:10;}
	.st8{fill:none;stroke:#50B958;stroke-width:2;stroke-miterlimit:10;}
	.st9{fill:none;stroke:#50B958;stroke-width:3;stroke-linecap:round;stroke-miterlimit:10;}
	.st10{fill:none;stroke:#50B958;stroke-width:2;stroke-linecap:round;stroke-miterlimit:10;}
</style>
<g>
	<path class="st0" d="M440.4,137.5c-0.2-0.3-0.4-0.5-0.7-0.6c-0.3-0.1-0.6,0-0.9,0.1l-8.4,4.8l-4.7-2.7c-0.4-0.2-0.8-0.2-1.2,0
		l-5.6,3.3c-0.4,0.2-0.6,0.6-0.6,1v5.8l-8.2,4.7c-0.6,0.3-0.8,1.1-0.4,1.6l12,20.7c0.2,0.3,0.4,0.5,0.7,0.6c0.1,0,0.2,0,0.3,0
		c0.2,0,0.4-0.1,0.6-0.2l8.9-5.1l3.7,2.1c0.4,0.2,0.8,0.2,1.2,0l5.6-3.3c0.4-0.2,0.6-0.6,0.6-1v-4.6l8.7-5c0.6-0.3,0.8-1,0.4-1.6
		L440.4,137.5z M439.2,138.7l3.5,6.2l-4.3,2.5l-1-0.6l-3-5.3L439.2,138.7z M423.2,157.6l3.2-1.8l3.5,6.1l-3.2,1.8L423.2,157.6z
		 M426,164.1l-3.2,1.8l-3.5-6.1l3.2-1.8L426,164.1z M428.1,145.5l3.5,6.2l-4.8,2.8l-3.5-6.1L428.1,145.5z M427.2,155.2l4.8-2.8
		l3.5,6.2l-4.8,2.8L427.2,155.2z M431.7,150L431.7,150l4.6-2.8l4.7,2.7l-4.7,2.7L431.7,150z M430.7,144l4.7,2.7l-4.2,2.4l-2.4-4.1
		L430.7,144z M425.1,140.7l4.7,2.7l-1.8,1c0,0,0,0,0,0l-2.9,1.7l-4.7-2.7L425.1,140.7z M422.4,148.8l3.5,6.1l-3.2,1.8l-3.5-6.1
		L422.4,148.8z M418.5,151.1l3.5,6.1l-3.2,1.8l-3.5-6.1L418.5,151.1z M411.3,155.2l3.2-1.8l3.5,6.1l-3.2,1.8L411.3,155.2z
		 M415.3,162.2l3.2-1.8l3.5,6.1l-3.2,1.8L415.3,162.2z M422.8,175.2l-3.5-6.1l3.2-1.8l3.5,6.1L422.8,175.2z M426.8,172.9l-3.5-6.1
		l3.2-1.8l3.5,6.1L426.8,172.9z M430.8,170.6l-3.5-6.1l3.2-1.8l3.5,6.1L430.8,170.6z M434.7,168.2l-3.5-6.1l4.8-2.8l3.5,6.1
		L434.7,168.2z M441.5,169.2l-4.7,2.7v-3.9l3.6-2.1c0.2-0.1,0.3-0.4,0.2-0.6l-0.5-0.8l1.4-0.8C441.5,163.8,441.5,169.2,441.5,169.2z
		 M441.5,162.7l-1.9,1.1l-2.4-4.1l4.3-2.5V162.7z M441.5,156.2l-4.7,2.7l0,0v-5.4l4.7-2.7V156.2z M442.4,149.9
		C442.4,149.9,442.4,149.9,442.4,149.9c0-0.1,0-0.1,0-0.1c0,0,0-0.1-0.1-0.1c0,0,0,0,0,0c0,0,0,0-0.1-0.1c0,0,0,0,0,0l-2.9-1.7
		l3.9-2.2l3.5,6.2l-4.2,2.5V150C442.5,150,442.5,150,442.4,149.9C442.5,149.9,442.5,149.9,442.4,149.9z M445.8,161.4l-3.4-5.9v-0.3
		l4.7-2.7l3.5,6.1L445.8,161.4z"/>
</g>
<g>
	<path class="st0" d="M260.7,18.7c0-1.2-0.9-2.1-2.1-2.1c-0.1,0-0.1,0-0.2,0l0,0h-13.7h-0.1c-1.1,0-2.1,0.9-2.1,2.1v5.7H240v8.5h2.5
		v1.3h-3.2v0.2c0,0,0,0.5,0,0.7c0,1.1,0.8,1.9,1.8,1.9h13.7l0,0c1.2,0,2.1-0.9,2.1-2.1v-7.7l3.7-0.1L260.7,18.7z M240.5,24.8h5.9
		v7.6h-5.9C240.5,32.4,240.5,24.8,240.5,24.8z M241.1,36.5c-0.8,0-1.3-0.6-1.3-1.4c0-0.1,0-0.3,0-0.4h13c0,0.1,0,0.2,0,0.2
		c0,0.7,0.3,1.2,0.8,1.6L241.1,36.5L241.1,36.5z M256.5,18.7v16.2c0,0.9-0.7,1.6-1.6,1.6c-0.9,0-1.6-0.7-1.6-1.6
		c0-0.1,0-0.3,0.1-0.4l0.1-0.3h-0.3H243v-1.2h3.9v-8.6H243v-5.7c0-0.9,0.7-1.6,1.6-1.6h12.6C256.8,17.4,256.5,18,256.5,18.7z
		 M257,26.7v-8.1c0-0.9,0.7-1.6,1.6-1.6c0.9,0,1.6,0.7,1.6,1.6v8L257,26.7z"/>
	<path class="st0" d="M240.9,27.4h5.1v-2.1h-5.1V27.4z M241.4,25.9h4.1v1.1h-4.1V25.9z"/>

		<rect x="241.8" y="29.7" transform="matrix(0.7071 -0.7071 0.7071 0.7071 50.1509 180.9451)" class="st0" width="3.4" height="0.5"/>
	<path class="st0" d="M244.4,30.1c-0.4,0-0.8,0.3-0.8,0.8s0.3,0.8,0.8,0.8c0.4,0,0.8-0.3,0.8-0.8C245.1,30.5,244.8,30.1,244.4,30.1z
		 M244.4,31.1c-0.1,0-0.3-0.1-0.3-0.3c0-0.1,0.1-0.3,0.3-0.3c0.1,0,0.3,0.1,0.3,0.3S244.5,31.1,244.4,31.1z"/>
	<path class="st0" d="M243.3,29.1c0-0.4-0.3-0.8-0.8-0.8s-0.8,0.3-0.8,0.8s0.3,0.8,0.8,0.8S243.3,29.5,243.3,29.1z M242.3,29.1
		c0-0.1,0.1-0.3,0.3-0.3s0.3,0.1,0.3,0.3c0,0.1-0.1,0.3-0.3,0.3C242.4,29.3,242.3,29.2,242.3,29.1z"/>
	<path class="st0" d="M251.2,25.9c2.1,0,3.8-1.7,3.8-3.8s-1.7-3.8-3.8-3.8s-3.8,1.7-3.8,3.8S249.1,25.9,251.2,25.9z M251.2,18.8
		c1.8,0,3.3,1.5,3.3,3.3s-1.5,3.3-3.3,3.3s-3.3-1.5-3.3-3.3S249.4,18.8,251.2,18.8z"/>
	<rect x="248.2" y="31.8" class="st0" width="6.9" height="0.5"/>
	<rect x="249.4" y="29.9" class="st0" width="5.7" height="0.5"/>
	<rect x="250.6" y="28.1" class="st0" width="4.4" height="0.5"/>
	<text transform="matrix(1 0 0 1 249.2744 24.183)" class="st0 st1 st2">€</text>
</g>
<g>
	<g>
		<path class="st0" d="M432.6,759.9c-9,0-16.3-7.3-16.3-16.3c0-8.1,6-15,13.9-16.1c0.3,0,0.7,0.2,0.7,0.6c0,0.3-0.2,0.7-0.6,0.7
			c-7.2,1-12.8,7.4-12.8,14.8c0,8.3,6.7,15,15,15c8.3,0,15-6.7,15-15c0-0.4,0.3-0.7,0.7-0.7s0.7,0.3,0.7,0.7
			C448.9,752.6,441.6,759.9,432.6,759.9z"/>
	</g>
	<g>
		<path class="st0" d="M433,734.6c-0.1,0-0.2,0-0.3-0.1c-0.2-0.1-0.3-0.3-0.3-0.6v-12.3c0-0.2,0.1-0.4,0.3-0.6
			c0.2-0.1,0.4-0.1,0.7,0l10.7,6.2c0.2,0.1,0.3,0.3,0.3,0.6c0,0.2-0.1,0.4-0.3,0.6l-10.7,6.2C433.3,734.6,433.1,734.6,433,734.6z
			 M433.7,722.8v10l8.7-5L433.7,722.8z"/>
	</g>
</g>
<path class="st0" d="M56.8,709v60.7H88V709H56.8z M87,768.8H57.6V710H87V768.8z M64.8,721h-2.7v11.8h2.7V721z M68.3,724.8h-2.7v8
	h2.7V724.8z M71.9,729.2h-2.7v3.6h2.7V729.2z M72.7,730.9v1.9h2.7v-1.9H72.7z M83.4,751.1H61.5v2.7h21.9V751.1z M69.7,755.5h-8.2
	v2.7h8.2V755.5z M64.9,759.9h-3.4v2.7h3.4V759.9z M62.7,746.5c0,1.4,1.1,2.5,2.5,2.5c1.4,0,2.5-1.1,2.5-2.5c0-1.4-1.1-2.5-2.5-2.5
	C63.8,744,62.7,745.1,62.7,746.5z M65.2,746c0.3,0,0.5,0.2,0.5,0.5c0,0.3-0.2,0.5-0.5,0.5c-0.3,0-0.5-0.2-0.5-0.5
	C64.8,746.2,65,746,65.2,746z M71.3,738c-0.3-0.1-0.6-0.1-0.9-0.1c-2.3,0-4.1,1.8-4.1,4.1s1.8,4.1,4.1,4.1c0.3,0,0.6,0,0.9-0.1
	c1.2,1.5,3,2.5,5.1,2.5c3.6,0,6.5-2.9,6.5-6.5c0-3.6-2.9-6.5-6.5-6.5C74.3,735.5,72.5,736.4,71.3,738z M70.2,744
	c-1.1-0.1-1.9-0.9-1.9-2c0-1.1,0.8-1.9,1.9-2c-0.2,0.6-0.3,1.3-0.3,2C69.9,742.7,70,743.3,70.2,744z M76.4,737.5
	c2.4,0,4.4,2,4.4,4.4c0,2.4-2,4.4-4.4,4.4c-1.3,0-2.5-0.6-3.3-1.4c0.8-0.7,1.3-1.8,1.3-3c0-1.2-0.5-2.2-1.3-3
	C74,738.1,75.1,737.5,76.4,737.5z M72.1,740.9c0.2,0.3,0.3,0.7,0.3,1s-0.1,0.7-0.3,1c-0.1-0.3-0.1-0.7-0.1-1
	C72,741.6,72,741.2,72.1,740.9z M77.8,725c3.2,0,5.9-2.6,5.9-5.9c0-3.2-2.6-5.9-5.9-5.9c-3.2,0-5.9,2.6-5.9,5.9
	C72,722.4,74.6,725,77.8,725z M78.9,715.5c1.6,0.5,2.8,1.9,2.8,3.7c0,0.2,0,0.4,0,0.6l-2.7-1.2L78.9,715.5L78.9,715.5z M78.1,720.5
	l2.6,1.2c-0.7,0.8-1.7,1.4-2.9,1.4c-0.5,0-1-0.1-1.4-0.3L78.1,720.5z M76.8,715.5v3.3l-2,2.6c-0.5-0.6-0.7-1.4-0.7-2.2
	C74,717.4,75.2,716,76.8,715.5z"/>
<g>
	<path class="st0" d="M228.5,646.7c0.2,0,0.4-0.1,0.4-0.4v-7.7c0-0.2-0.1-0.4-0.4-0.4c-0.2,0-0.4,0.1-0.4,0.4v7.8
		C228.1,646.6,228.3,646.7,228.5,646.7z"/>
	<path class="st0" d="M228.5,651.8c0.2,0,0.4-0.1,0.4-0.4v-2.5c0-0.2-0.1-0.4-0.4-0.4c-0.2,0-0.4,0.1-0.4,0.4v2.5
		C228.1,651.7,228.3,651.8,228.5,651.8z"/>
	<path class="st0" d="M281.9,668.1c-0.2,0-0.4,0.1-0.4,0.4v7.8c0,0.2,0.1,0.4,0.4,0.4c0.2,0,0.4-0.1,0.4-0.4v-7.8
		C282.3,668.3,282.1,668.1,281.9,668.1z"/>
	<path class="st0" d="M281.9,678.4c-0.2,0-0.4,0.1-0.4,0.4v2.5c0,0.2,0.1,0.4,0.4,0.4c0.2,0,0.4-0.1,0.4-0.4v-2.5
		C282.3,678.6,282.1,678.4,281.9,678.4z"/>
	<path class="st0" d="M274.9,651.7l-0.8-0.8c-0.1-0.1-0.4-0.1-0.5,0c-0.1,0.1-0.1,0.4,0,0.5l0.8,0.8c0,0,0.1,0.1,0.2,0.1
		c0.1,0,0.2,0,0.2-0.1C275.1,652.1,275.1,651.9,274.9,651.7z"/>
	<path class="st0" d="M276.2,654.1l0.8,0.8c0,0,0.1,0.1,0.2,0.1c0.1,0,0.2,0,0.2-0.1c0.1-0.1,0.1-0.4,0-0.5l-0.8-0.8
		c-0.1-0.1-0.4-0.1-0.5,0C276.1,653.7,276.1,653.9,276.2,654.1z"/>
	<path class="st0" d="M274.4,653.5l-0.8,0.8c-0.1,0.1-0.1,0.4,0,0.5c0,0,0.1,0.1,0.2,0.1c0.1,0,0.2,0,0.2-0.1l0.8-0.8
		c0.1-0.1,0.1-0.4,0-0.5C274.8,653.4,274.5,653.4,274.4,653.5z"/>
	<path class="st0" d="M276.5,652.3c0.1,0,0.2,0,0.2-0.1l0.8-0.8c0.1-0.1,0.1-0.4,0-0.5c-0.1-0.1-0.4-0.1-0.5,0l-0.8,0.8
		c-0.1,0.1-0.1,0.4,0,0.5C276.3,652.3,276.4,652.3,276.5,652.3z"/>
	<path class="st0" d="M221.1,660.6c0,0,0.1,0.1,0.2,0.1c0.1,0,0.2,0,0.2-0.1c0.1-0.1,0.1-0.4,0-0.5l-0.8-0.8c-0.1-0.1-0.4-0.1-0.5,0
		c-0.1,0.1-0.1,0.4,0,0.5L221.1,660.6z"/>
	<path class="st0" d="M223.8,663.2c0,0,0.1,0.1,0.2,0.1c0.1,0,0.2,0,0.2-0.1c0.1-0.1,0.1-0.4,0-0.5l-0.8-0.8c-0.1-0.1-0.4-0.1-0.5,0
		c-0.1,0.1-0.1,0.4,0,0.5L223.8,663.2z"/>
	<path class="st0" d="M220.6,663.3c0.1,0,0.2,0,0.2-0.1l0.8-0.8c0.1-0.1,0.1-0.4,0-0.5c-0.1-0.1-0.4-0.1-0.5,0l-0.8,0.8
		c-0.1,0.1-0.1,0.4,0,0.5C220.4,663.3,220.5,663.3,220.6,663.3z"/>
	<path class="st0" d="M223.2,660.7c0.1,0,0.2,0,0.2-0.1l0.8-0.8c0.1-0.1,0.1-0.4,0-0.5c-0.1-0.1-0.4-0.1-0.5,0l-0.8,0.8
		c-0.1,0.1-0.1,0.4,0,0.5C223,660.7,223.1,660.7,223.2,660.7z"/>
	<path class="st0" d="M264.4,687c-0.1-0.1-0.4-0.1-0.5,0c-0.1,0.1-0.1,0.4,0,0.5l0.8,0.8c0,0,0.1,0.1,0.2,0.1c0.1,0,0.2,0,0.2-0.1
		c0.1-0.1,0.1-0.4,0-0.5L264.4,687z"/>
	<path class="st0" d="M267,689.6c-0.1-0.1-0.4-0.1-0.5,0c-0.1,0.1-0.1,0.4,0,0.5l0.8,0.8c0,0,0.1,0.1,0.2,0.1c0.1,0,0.2,0,0.2-0.1
		c0.1-0.1,0.1-0.4,0-0.5L267,689.6z"/>
	<path class="st0" d="M264.6,689.6l-0.8,0.8c-0.1,0.1-0.1,0.4,0,0.5c0,0,0.1,0.1,0.2,0.1c0.1,0,0.2,0,0.2-0.1l0.8-0.8
		c0.1-0.1,0.1-0.4,0-0.5C265,689.5,264.8,689.5,264.6,689.6z"/>
	<path class="st0" d="M267.3,687l-0.8,0.8c-0.1,0.1-0.1,0.4,0,0.5c0,0,0.1,0.1,0.2,0.1c0.1,0,0.2,0,0.2-0.1l0.8-0.8
		c0.1-0.1,0.1-0.4,0-0.5C267.7,686.9,267.5,686.9,267.3,687z"/>
	<path class="st0" d="M236.7,636.3c1.2,0,2.2-1,2.2-2.2c0-1.2-1-2.2-2.2-2.2s-2.2,1-2.2,2.2C234.5,635.3,235.5,636.3,236.7,636.3z
		 M236.7,632.7c0.8,0,1.4,0.6,1.4,1.4c0,0.8-0.6,1.4-1.4,1.4s-1.4-0.6-1.4-1.4C235.2,633.3,235.9,632.7,236.7,632.7z"/>
	<path class="st0" d="M247,683.9c-1.2,0-2.2,1-2.2,2.2s1,2.2,2.2,2.2s2.2-1,2.2-2.2S248.1,683.9,247,683.9z M247,687.6
		c-0.8,0-1.4-0.6-1.4-1.4c0-0.8,0.6-1.4,1.4-1.4s1.4,0.6,1.4,1.4C248.4,686.9,247.7,687.6,247,687.6z"/>
	<path class="st0" d="M265.8,634.5h8.4c0.2,0,0.4-0.1,0.4-0.4c0-0.2-0.1-0.4-0.4-0.4h-8.4c-0.2,0-0.4,0.1-0.4,0.4
		C265.5,634.3,265.6,634.5,265.8,634.5z"/>
	<path class="st0" d="M279.7,633.8H277c-0.2,0-0.4,0.1-0.4,0.4c0,0.2,0.1,0.4,0.4,0.4h2.7c0.2,0,0.4-0.1,0.4-0.4
		C280.1,633.9,279.9,633.8,279.7,633.8z"/>
	<path class="st0" d="M279.7,636.6h-5.9c-0.2,0-0.4,0.1-0.4,0.4c0,0.2,0.1,0.4,0.4,0.4h5.9c0.2,0,0.4-0.1,0.4-0.4
		C280.1,636.8,279.9,636.6,279.7,636.6z"/>
	<path class="st0" d="M269.4,636.6c-0.2,0-0.4,0.1-0.4,0.4c0,0.2,0.1,0.4,0.4,0.4h1.9c0.2,0,0.4-0.1,0.4-0.4c0-0.2-0.1-0.4-0.4-0.4
		H269.4z"/>
	<path class="st0" d="M234,691.5h-8.4c-0.2,0-0.4,0.1-0.4,0.4c0,0.2,0.1,0.4,0.4,0.4h8.4c0.2,0,0.4-0.1,0.4-0.4
		C234.3,691.7,234.2,691.5,234,691.5z"/>
	<path class="st0" d="M222.8,691.5h-2.7c-0.2,0-0.4,0.1-0.4,0.4c0,0.2,0.1,0.4,0.4,0.4h2.7c0.2,0,0.4-0.1,0.4-0.4
		C223.2,691.7,223,691.5,222.8,691.5z"/>
	<path class="st0" d="M220.1,689.3h5.9c0.2,0,0.4-0.1,0.4-0.4c0-0.2-0.1-0.4-0.4-0.4h-5.9c-0.2,0-0.4,0.1-0.4,0.4
		S219.9,689.3,220.1,689.3z"/>
	<path class="st0" d="M230.4,689.3c0.2,0,0.4-0.1,0.4-0.4c0-0.2-0.1-0.4-0.4-0.4h-1.9c-0.2,0-0.4,0.1-0.4,0.4c0,0.2,0.1,0.4,0.4,0.4
		H230.4z"/>
	<path class="st0" d="M251.4,654c5,0,9-4,9-9c0-5-4-9-9-9c-5,0-9,4-9,9C242.4,650,246.4,654,251.4,654z M251.4,636.7
		c4.6,0,8.3,3.7,8.3,8.3c0,4.6-3.7,8.3-8.3,8.3s-8.3-3.7-8.3-8.3C243.1,640.5,246.8,636.7,251.4,636.7z"/>
	<path class="st0" d="M257.8,654.4c-0.1-0.2-0.3-0.2-0.5-0.1c-0.2,0.1-0.2,0.3-0.1,0.5l5.6,9.7l-2.8-1c-0.2,0-0.4,0-0.5,0.2
		c0,0.2,0,0.4,0.2,0.5l3.7,1.4c0,0,0.1,0,0.1,0l0,0l0,0c0,0,0.1,0,0.2,0c0,0,0.1,0,0.1-0.1v0c0,0,0,0,0-0.1l0,0l0.6-3.9
		c0-0.2-0.1-0.4-0.3-0.4c-0.2,0-0.4,0.1-0.4,0.3l-0.5,3L257.8,654.4z"/>
	<path class="st0" d="M245.5,654.3c-0.2-0.1-0.4,0-0.5,0.1l-5.7,9.7l-0.5-3c0-0.2-0.2-0.3-0.4-0.3c-0.2,0-0.3,0.2-0.3,0.4l0.6,3.9
		l0,0c0,0,0,0,0,0.1v0c0,0,0,0.1,0.1,0.1c0,0,0.1,0,0.2,0l0,0l0,0c0,0,0.1,0,0.1,0l3.7-1.4c0.2,0,0.3-0.3,0.2-0.5
		c0-0.2-0.3-0.3-0.5-0.2l-2.8,1l5.7-9.7C245.7,654.6,245.6,654.4,245.5,654.3z"/>
	<path class="st0" d="M268.7,665.9c-4.8,0-8.8,3.8-9,8.6H243c-0.2-4.8-4.1-8.6-9-8.6c-5,0-9,4-9,9c0,5,4,9,9,9c4.8,0,8.8-3.8,9-8.6
		h16.7c0.2,4.8,4.1,8.6,9,8.6c5,0,9-4,9-9C277.7,669.9,273.7,665.9,268.7,665.9z M234.1,683.1c-4.6,0-8.3-3.7-8.3-8.3
		s3.7-8.3,8.3-8.3c4.4,0,8.1,3.5,8.3,7.9h-6.1c-0.2-1-1.1-1.9-2.2-1.9c-1.2,0-2.2,1-2.2,2.2s1,2.2,2.2,2.2c1.1,0,2-0.8,2.2-1.9h6.1
		C242.1,679.6,238.5,683.1,234.1,683.1z M235.5,674.9c0,0.8-0.7,1.5-1.5,1.5c-0.8,0-1.5-0.7-1.5-1.5c0-0.8,0.7-1.5,1.5-1.5
		C234.8,673.4,235.5,674.1,235.5,674.9z M268.7,683.1c-4.4,0-8.1-3.5-8.3-7.9h6.1c0.2,1,1.1,1.9,2.2,1.9c1.2,0,2.2-1,2.2-2.2
		s-1-2.2-2.2-2.2c-1.1,0-2,0.8-2.2,1.9h-6c0.2-4.4,3.8-7.9,8.3-7.9c4.6,0,8.3,3.7,8.3,8.3C277,679.4,273.3,683.1,268.7,683.1z
		 M267.2,674.9c0-0.8,0.7-1.5,1.5-1.5c0.8,0,1.5,0.7,1.5,1.5c0,0.8-0.7,1.5-1.5,1.5S267.2,675.7,267.2,674.9z"/>
	<path class="st0" d="M255.8,648.3H247c-0.2,0-0.4,0.1-0.4,0.4c0,0.2,0.1,0.4,0.4,0.4h8.9c0.2,0,0.4-0.1,0.4-0.4
		C256.2,648.5,256,648.3,255.8,648.3z"/>
	<path class="st0" d="M246,646.6h10.8c0.2,0,0.4-0.1,0.4-0.4c0-0.2-0.1-0.4-0.4-0.4H246c-0.2,0-0.4,0.1-0.4,0.4
		S245.8,646.6,246,646.6z"/>
	<path class="st0" d="M246,644.1h10.8c0.2,0,0.4-0.1,0.4-0.4c0-0.2-0.1-0.4-0.4-0.4H246c-0.2,0-0.4,0.1-0.4,0.4
		S245.8,644.1,246,644.1z"/>
	<path class="st0" d="M247,641.6h8.9c0.2,0,0.4-0.1,0.4-0.4c0-0.2-0.1-0.4-0.4-0.4H247c-0.2,0-0.4,0.1-0.4,0.4
		C246.6,641.5,246.7,641.6,247,641.6z"/>
</g>
<g transform="translate(0,-1028.3622)">
	<path class="st0" d="M224,1543.4c-1.9,0-3.6,0.8-4.9,2H215v2h2.7c-0.3,0.6-0.5,1.3-0.6,2H215v2h2.1c0.1,0.7,0.3,1.4,0.6,2H215v2
		h4.1c1.3,1.2,3,2,4.9,2c3.9,0,7-3.1,7-7C231,1546.5,227.9,1543.4,224,1543.4z M224,1545.4c2.8,0,5,2.2,5,5c0,2.8-2.2,5-5,5
		s-5-2.2-5-5C219,1547.6,221.2,1545.4,224,1545.4z"/>
	<path class="st0" d="M215,1541.4v2h6v-2H215z"/>
	<path class="st0" d="M207,1545.4v2h6v-2H207z"/>
	<path class="st0" d="M207,1549.4v2h6v-2H207z"/>
	<path class="st0" d="M207,1553.4v2h6v-2H207z"/>
	<path class="st0" d="M207,1541.4v2h6v-2H207z"/>
	<path class="st0" d="M207,1537.4v2h6v-2H207z"/>
	<path class="st0" d="M207,1533.4v2h6v-2H207z"/>
	<path class="st0" d="M226.3,1547.4l-3.3,3.2l-1.3-1.3l-1.4,1.4l2.7,2.6l4.7-4.6L226.3,1547.4z"/>
</g>
<g>
	<path class="st0" d="M271.8,507.1h-0.7V504c0-0.4-0.4-0.8-0.8-0.8h-2c-0.4,0-0.8,0.4-0.8,0.8v3.1h-0.7c-0.6,0-1.1,0.5-1.1,1.1v2.2
		c0,0.6,0.5,1.1,1.1,1.1h0.7v4.4h-1.4v0.4h1.4v11.8c0,0.4,0.4,0.8,0.8,0.8h2c0.4,0,0.8-0.4,0.8-0.8v-16.6h0.7c0.6,0,1.1-0.5,1.1-1.1
		v-2.2C272.9,507.6,272.4,507.1,271.8,507.1z M272.5,509.6c0,0.4-0.3,0.7-0.7,0.7h-4.9c-0.4,0-0.7-0.3-0.7-0.7c0,0,0-1.5,0-1.5
		c0-0.3,0.3-0.6,0.7-0.6h4.9c0.4,0,0.6,0.3,0.7,0.6C272.5,508.2,272.5,509.6,272.5,509.6z M268,504c0-0.2,0.2-0.4,0.4-0.4h2
		c0.2,0,0.4,0.2,0.4,0.4v3.1H270v-2.8h-1.2v2.8H268V504z M270.7,528.1c0,0.2-0.2,0.4-0.4,0.4h-2c-0.2,0-0.4-0.2-0.4-0.4v-16.6h0.8
		v16.4h1.2v-16.4h0.8V528.1z"/>
	<path class="st0" d="M281.9,518.3h-0.7V504c0-0.4-0.4-0.8-0.8-0.8h-2c-0.4,0-0.8,0.4-0.8,0.8v11.9h-1.4v0.4h1.4v2H277
		c-0.6,0-1.1,0.5-1.1,1.1v2.2c0,0.6,0.5,1.1,1.1,1.1h0.7v5.5c0,0.4,0.4,0.8,0.8,0.8h2c0.4,0,0.8-0.4,0.8-0.8v-5.5h0.7
		c0.6,0,1.1-0.5,1.1-1.1v-2.2C282.9,518.7,282.5,518.3,281.9,518.3z M282.6,520.8c0,0.4-0.3,0.7-0.7,0.7H277c-0.4,0-0.7-0.3-0.7-0.7
		c0,0,0-1.5,0-1.5c0-0.3,0.3-0.6,0.7-0.6h4.9c0.4,0,0.6,0.3,0.7,0.6C282.5,519.3,282.6,520.8,282.6,520.8z M278,504
		c0-0.2,0.2-0.4,0.4-0.4h2c0.2,0,0.4,0.2,0.4,0.4v14.2H280v-13.9h-1.2v13.9H278V504z M280.8,528.1c0,0.2-0.2,0.4-0.4,0.4h-2
		c-0.2,0-0.4-0.2-0.4-0.4v-5.5h0.8v5.3h1.2v-5.3h0.8V528.1z"/>
	<path class="st0" d="M291.9,509.9h-0.7V504c0-0.4-0.4-0.8-0.8-0.8h-2c-0.4,0-0.8,0.4-0.8,0.8v5.9H287c-0.6,0-1.1,0.5-1.1,1.1v2.2
		c0,0.6,0.5,1.1,1.1,1.1h0.7v1.7h-1.4v0.4h1.4v11.8c0,0.4,0.4,0.8,0.8,0.8h2c0.4,0,0.8-0.4,0.8-0.8v-13.9h0.7c0.6,0,1.1-0.5,1.1-1.1
		v-2.2C293,510.4,292.5,509.9,291.9,509.9z M292.6,512.4c0,0.4-0.3,0.7-0.7,0.7H287c-0.4,0-0.7-0.3-0.7-0.7c0,0,0-1.5,0-1.5
		c0-0.3,0.3-0.6,0.7-0.6h4.9c0.4,0,0.6,0.3,0.7,0.6C292.6,510.9,292.6,512.4,292.6,512.4z M288.1,504c0-0.2,0.2-0.4,0.4-0.4h2
		c0.2,0,0.4,0.2,0.4,0.4v5.9h-0.8v-5.5h-1.2v5.5h-0.8V504z M290.8,528.1c0,0.2-0.2,0.4-0.4,0.4h-2c-0.2,0-0.4-0.2-0.4-0.4v-13.9h0.8
		v13.6h1.2v-13.6h0.8V528.1z"/>
</g>
<g>
	<path class="st0" d="M87.9,146.1l-16.9-9.8c-0.4-0.2-0.8-0.2-1.2,0l-16.9,9.8c-0.4,0.2-0.6,0.6-0.6,1v19.6c0,0.4,0.2,0.8,0.6,1
		l16.9,9.8c0.2,0.1,0.4,0.2,0.6,0.2c0.2,0,0.4-0.1,0.6-0.2l16.9-9.8c0.4-0.2,0.6-0.6,0.6-1l0-6.5c0,0,0,0,0,0l0-6.5c0,0,0,0,0,0
		l0-6.5C88.4,146.7,88.2,146.3,87.9,146.1z M80.7,143.9l-4.7,2.7l-4.7-2.7l4.7-2.7L80.7,143.9z M75.1,147.2l-4.7,2.7l-4.7-2.7
		l4.7-2.7L75.1,147.2z M70.3,137.9l4.7,2.7l-4.7,2.7l-4.7-2.7L70.3,137.9z M64.7,141.2l4.7,2.7l-4.7,2.7l-4.7-2.7L64.7,141.2z
		 M58.6,169.2l-4.7-2.7V161l4.7,2.7V169.2z M58.6,162.7l-4.7-2.7v-5.5l4.7,2.7V162.7z M58.6,156.1l-4.7-2.7v-5.5l4.7,2.7V156.1z
		 M54.3,147.2l4.7-2.7l4.7,2.7l-4.7,2.7L54.3,147.2z M64.2,172.4l-4.7-2.7v-5.5l4.7,2.7V172.4z M64.2,165.9l-4.7-2.7v-5.5l4.7,2.7
		L64.2,165.9L64.2,165.9z M64.2,159.4l-4.7-2.7v-5.5l4.7,2.7L64.2,159.4L64.2,159.4z M60,150.4l4.7-2.7l4.7,2.7l-4.7,2.7L60,150.4z
		 M69.9,175.7l-4.7-2.7v-5.5l4.7,2.7V175.7z M69.9,169.2l-4.7-2.7V161l4.7,2.7L69.9,169.2L69.9,169.2z M69.9,162.7l-4.7-2.7v-5.5
		l4.7,2.7L69.9,162.7L69.9,162.7z M65.6,153.7l4.7-2.7l4.7,2.7l-4.7,2.7L65.6,153.7z M75.5,173l-4.7,2.7v-5.5l4.7-2.7V173z
		 M75.5,166.4l-4.7,2.7v-5.5l4.7-2.7C75.5,161,75.5,166.4,75.5,166.4z M75.5,159.9l-4.7,2.7v-5.5l4.7-2.7V159.9z M71.2,150.4
		l4.7-2.7l4.7,2.7l-4.7,2.7L71.2,150.4z M81.2,169.7l-4.7,2.7V167l4.7-2.7V169.7z M81.2,163.2l-4.7,2.7v-5.5l1.5-0.8l3.3-1.9V163.2z
		 M81.2,156.7l-4.7,2.7v-5.5l4.7-2.7C81.2,151.2,81.2,156.7,81.2,156.7z M76.9,147.2l4.7-2.7l4.7,2.7l-4.7,2.7L76.9,147.2z
		 M86.8,166.4l-4.7,2.7v-5.5l4.7-2.7V166.4z M86.8,159.9l-4.7,2.7v-5.5l4.7-2.7V159.9z M86.8,153.4l-4.7,2.7v-5.5l4.7-2.7V153.4z"/>
</g>
<text transform="matrix(1 0 0 1 139.7221 53.4815)" class="st0 st3 st4">You have already uploaded your fiscal data. </text>
<text transform="matrix(1 0 0 1 119.4106 67.665)" class="st0 st3 st4">Now, you need to perform data mining and analysis.</text>
<text transform="matrix(1 0 0 1 165.2281 150.6689)"><tspan x="0" y="0" class="st0 st3 st4">You can use either the fiscal facts  </tspan><tspan x="-11.4" y="14.4" class="st0 st3 st4">table as-is, or an aggregated view of it.</tspan></text>
<g>
	<path class="st0" d="M262.1,107.2h-3.2c-0.2-1.1-1.1-2-2.2-2H246c-1.2,0-2.2,1.1-2.2,2.5v5.5h-0.9c-0.2,0-0.4,0.2-0.4,0.5v2
		c0,0.2,0.1,0.4,0.2,0.4l5.6,3.3v4.2c0,0.2,0.1,0.4,0.3,0.5c0.1,0,0.1,0,0.2,0c0.1,0,0.2-0.1,0.3-0.1l1.8-2c0.1-0.1,0.1-0.2,0.1-0.4
		v-2.2l5.6-3.3c0.1-0.1,0.2-0.3,0.2-0.4v-2c0-0.3-0.2-0.5-0.4-0.5h-0.9v-2h4.9c1.2,0,2.2-1.1,2.2-2.5v-1
		C262.5,107.4,262.3,107.2,262.1,107.2z M255.8,115.3l-5.6,3.3c-0.1,0.1-0.2,0.3-0.2,0.4v2.3l-0.9,1v-3.3c0-0.2-0.1-0.4-0.2-0.4
		l-5.6-3.3v-1.2h0.9h10.7h0.9V115.3z M244.6,113.2v-5.5c0-0.8,0.6-1.5,1.3-1.5h8.9c0,0,0,0,0,0.1c0,0,0,0.1-0.1,0.1
		c0,0.1-0.1,0.2-0.1,0.3c0,0,0,0.1-0.1,0.1c0,0.1-0.1,0.2-0.1,0.3c0,0,0,0.1,0,0.1c0,0.1,0,0.3,0,0.5v3v2.5H244.6z M255.4,110.2
		v-2.5c0-0.8,0.6-1.5,1.3-1.5c0.7,0,1.3,0.7,1.3,1.5v1c0,0.2,0,0.3,0,0.5c0,0,0,0.1,0,0.1c0,0.1,0,0.2,0.1,0.3c0,0.1,0,0.1,0.1,0.1
		c0,0.1,0.1,0.2,0.1,0.3c0,0,0,0.1,0.1,0.1c0,0,0,0,0,0.1C258.5,110.2,255.4,110.2,255.4,110.2z M261.6,108.7c0,0.8-0.6,1.5-1.3,1.5
		s-1.3-0.7-1.3-1.5v-0.5h2.7V108.7z"/>
	<path class="st0" d="M260.7,126.1c-0.6,0-1.1,0.3-1.5,0.9l-2.1-1.2c0-0.1,0-0.1,0-0.2c0-1.1-0.8-2-1.8-2s-1.8,0.9-1.8,2
		c0,0.2,0,0.5,0.1,0.7l-2.3,2.1c-0.3-0.5-0.8-0.8-1.4-0.8c-0.5,0-0.9,0.2-1.2,0.5l-2.4-1.3c0-0.1,0-0.1,0-0.2c0-1.1-0.8-2-1.8-2
		c-1,0-1.8,0.9-1.8,2c0,0.1,0,0.1,0,0.2l-2.4,1.8c-0.3-0.3-0.7-0.5-1.2-0.5c-1,0-1.8,0.9-1.8,2s0.8,2,1.8,2c1,0,1.8-0.9,1.8-2
		c0-0.2,0-0.4-0.1-0.7l2.2-1.7c0.3,0.5,0.8,0.8,1.4,0.8c0.6,0,1.1-0.3,1.5-0.9l2.2,1.2c-0.1,0.2-0.1,0.4-0.1,0.6c0,1.1,0.8,2,1.8,2
		s1.8-0.9,1.8-2c0-0.1,0-0.2,0-0.2l2.4-2.2c0.3,0.3,0.7,0.5,1.2,0.5c0.6,0,1.1-0.3,1.5-0.9l2.1,1.2c0,0.1,0,0.1,0,0.2
		c0,1.1,0.8,2,1.8,2c1,0,1.8-0.9,1.8-2C262.5,127,261.7,126.1,260.7,126.1z M239.3,131.1c-0.5,0-0.9-0.4-0.9-1s0.4-1,0.9-1
		c0.5,0,0.9,0.4,0.9,1S239.8,131.1,239.3,131.1z M244.6,127.6c-0.5,0-0.9-0.4-0.9-1s0.4-1,0.9-1c0.5,0,0.9,0.4,0.9,1
		S245.1,127.6,244.6,127.6z M250,130.6c-0.5,0-0.9-0.4-0.9-1s0.4-1,0.9-1s0.9,0.4,0.9,1S250.5,130.6,250,130.6z M255.4,126.6
		c-0.5,0-0.9-0.4-0.9-1c0-0.5,0.4-1,0.9-1c0.5,0,0.9,0.4,0.9,1C256.3,126.1,255.8,126.6,255.4,126.6z M260.7,129.1
		c-0.5,0-0.9-0.4-0.9-1s0.4-1,0.9-1c0.5,0,0.9,0.4,0.9,1S261.2,129.1,260.7,129.1z"/>
	<rect x="246" y="111.2" class="st0" width="1.8" height="1"/>
	<rect x="248.7" y="111.2" class="st0" width="1.8" height="1"/>
	<rect x="251.3" y="111.2" class="st0" width="1.8" height="1"/>
	<rect x="246" y="109.2" class="st0" width="1.8" height="1"/>
	<rect x="248.7" y="109.2" class="st0" width="1.8" height="1"/>
	<rect x="251.3" y="109.2" class="st0" width="1.8" height="1"/>
	<rect x="246" y="107.2" class="st0" width="1.8" height="1"/>
	<rect x="248.7" y="107.2" class="st0" width="1.8" height="1"/>
	<rect x="251.3" y="107.2" class="st0" width="1.8" height="1"/>
	<rect x="252.7" y="120.1" class="st0" width="0.9" height="1"/>
	<rect x="254.5" y="120.1" class="st0" width="0.9" height="1"/>
	<rect x="256.3" y="120.1" class="st0" width="0.9" height="1"/>
	<rect x="242" y="120.1" class="st0" width="0.9" height="1"/>
	<rect x="243.8" y="120.1" class="st0" width="0.9" height="1"/>
	<rect x="245.5" y="120.1" class="st0" width="0.9" height="1"/>
</g>
<text transform="matrix(1 0 0 1 199.9968 257)"><tspan x="0" y="0" class="st0 st3 st4">Adjust the resulting </tspan><tspan x="-6" y="14.4" class="st0 st3 st4">dataset to your needs. </tspan><tspan x="-8.8" y="28.8" class="st0 st3 st4">You can also preview it.</tspan></text>
<g>
	<g>
		<path class="st0" d="M421,319.5v1h0.9l3.6,6.5v5l3,2V327l3.6-6.5h0.9v-1h-10.5H421L421,319.5z M426.3,331.5V327l-3.6-6.5l8.7,0
			l-3.6,6.5v5.5L426.3,331.5z"/>
		<text transform="matrix(1 0 0 1 390.6665 331)" class="st0 st3 st5">Filter</text>
	</g>
	<g>
		<g>
			<path class="st0" d="M432.2,294l2.1,2.2l2.1,2.3h-2.1v7.5c0,1.1-0.9,2-2.1,2h-0.9h-1.1h-1.8c-0.4,0-0.7-0.3-0.7-0.7l0,0
				c0-0.4,0.3-0.7,0.7-0.7h0.9c0.4,0,0.9-0.5,0.9-0.9v-7.2h-2.1l2.1-2.3L432.2,294z M422.2,308l-2.1-2.2l-2.1-2.2h2.1v-7.5
				c0-1.1,0.9-2.1,2.1-2.1h0.9h1.1h1.8c0.4,0,0.7,0.3,0.7,0.7l0,0c0,0.4-0.3,0.7-0.7,0.7h-0.9c-0.4,0-0.9,0.4-0.9,0.9v7.2h2.1
				l-2.1,2.2L422.2,308z"/>
		</g>
		<text transform="matrix(1 0 0 1 393.9998 305)" class="st0 st3 st5">Sort</text>
	</g>
	<g>
		<g>
			<path class="st0" d="M439,240.9c0-0.9-0.7-1.6-1.6-1.6c-0.3-0.8-0.7-1.5-1.2-2.2c0.3-0.3,0.4-0.8,0.4-1.2c0-1.2-1-2.1-2.1-2.1
				c-0.6,0-1.2,0.3-1.6,0.8c-0.7-0.3-1.5-0.5-2.2-0.6c-0.2-0.5-0.7-0.9-1.3-0.9c-0.6,0-1.2,0.4-1.3,1c-1.6,0.3-3.1,1.1-4.2,2.3
				c-0.2-0.1-0.5-0.2-0.7-0.2c-0.9,0-1.6,0.7-1.6,1.6c0,0.5,0.2,1,0.6,1.2c-0.4,1-0.6,2-0.6,3.1c0,0.3,0,0.6,0.1,1
				c-0.7,0.4-1.1,1.1-1.1,1.9c0,1.2,1,2.1,2.1,2.1c0.2,0,0.4,0,0.5-0.1c0.6,0.8,1.4,1.6,2.3,2.1c0,0.1-0.1,0.2-0.1,0.3
				c0,0.8,0.6,1.4,1.4,1.4c0.5,0,0.9-0.3,1.2-0.7c0.6,0.1,1.2,0.2,1.8,0.2c1.2,0,2.3-0.3,3.3-0.7c0.3,0.4,0.8,0.6,1.3,0.6
				c1,0,1.7-0.8,1.7-1.7c0-0.3-0.1-0.6-0.2-0.9c1.3-1.4,2.1-3.2,2.1-5.2C438.5,242.2,439,241.7,439,240.9z M424.5,244.5
				c0.8-0.4,1.8-0.8,2.8-1.1l-0.5,2.8l-2.3-0.6c0-0.2,0.1-0.3,0.1-0.5C424.6,244.8,424.6,244.7,424.5,244.5z M427.4,247.5l0.1-0.4
				l0.2,0.1L427.4,247.5z M427.6,246.3l0.6-3.2l1.1,1.1l-1.3,2.2L427.6,246.3z M432.4,236.5c0.1,0.4,0.4,0.8,0.7,1.1l-1.1,1.8
				l-0.6-0.1l-0.9-2.4L432.4,236.5z M435.9,240.3l-3.1-0.7l1-1.7c0.2,0.1,0.5,0.1,0.7,0.1c0.4,0,0.9-0.1,1.2-0.4
				c0.4,0.5,0.8,1.1,1,1.8C436.3,239.6,436.1,239.9,435.9,240.3z M433.3,247.2l-3.2-3.1l1.1-1.9c0.1,0,0.3-0.1,0.4-0.1L433.3,247.2
				C433.4,247.1,433.4,247.1,433.3,247.2z M428.2,238.6l-3.3-0.7l3.5-0.6L428.2,238.6z M428.8,239.5l2,0.4l0.3,1l-0.4,0.7
				c-0.6,0.1-1.1,0.3-1.7,0.4c-0.3,0.1-0.5,0.2-0.8,0.3L428.8,239.5z M429.3,242.7c0.3-0.1,0.6-0.2,1-0.3l-0.7,1.1l-0.8-0.7
				C429,242.8,429.1,242.8,429.3,242.7z M432,241l0.4-0.7l2.8,0.6c-0.9,0.1-2,0.3-3.1,0.5L432,241z M430.6,239.1l-1.7-0.4l0.3-1.7
				l0.6-0.1L430.6,239.1z M429.3,236.3l0.1-0.5l0.1,0.4L429.3,236.3z M428.7,235.7l-0.1,0.8l-4,0.7c-0.1-0.1-0.1-0.2-0.2-0.3
				c1-1,2.2-1.7,3.6-2C428.1,235.2,428.4,235.5,428.7,235.7z M424.5,238.5l3.6,0.8l-0.4,2.4l-3.2-3.1
				C424.5,238.6,424.5,238.6,424.5,238.5z M429.8,244.8l3.1,2.9c0,0,0,0.1-0.1,0.1l-4.1-1.1L429.8,244.8z M434.3,246.9
				c-0.1,0-0.1,0-0.2,0l-1.7-4.9c1.3-0.3,2.5-0.4,3.5-0.5c0.2,0.6,0.7,1,1.3,1.1c-0.1,1.8-0.8,3.4-1.9,4.6
				C435,247,434.7,246.9,434.3,246.9z M432.4,235.8l-2,0.4l-0.2-0.6c0.3-0.2,0.5-0.5,0.6-0.8c0.6,0.1,1.3,0.3,1.8,0.5
				C432.4,235.4,432.4,235.6,432.4,235.8z M422.2,242.2c0-1,0.2-1.9,0.5-2.7c0.1,0,0.3,0.1,0.4,0.1c0.3,0,0.6-0.1,0.9-0.3l3.5,3.4
				c-1.2,0.4-2.3,0.9-3.2,1.3c-0.4-0.6-1-1-1.8-1c-0.1,0-0.2,0-0.3,0C422.2,242.7,422.2,242.4,422.2,242.2z M423.7,246.7
				c0.2-0.1,0.4-0.3,0.6-0.6l2.5,0.7l-0.2,1.3c-0.3,0-0.6,0.2-0.9,0.4C424.9,248,424.3,247.5,423.7,246.7z M429.7,249.7
				c-0.6,0-1.1-0.1-1.7-0.2c0,0,0,0,0,0c0-0.4-0.1-0.7-0.4-1l0.7-1.2l4.3,1.2c0,0,0,0.1,0,0.1c0,0.2,0,0.3,0.1,0.5
				C431.7,249.5,430.7,249.7,429.7,249.7z"/>
			<path class="st0" d="M424.9,250.4c-0.1-0.1-0.4-0.2-0.5,0c-0.1,0.1-0.2,0.4,0,0.5c0.9,1,1.6,2.2,2.1,3.7l-1.1-0.1
				c0.7,0.5,1.4,1.4,1.9,2.1c0.1-0.9,0.4-2,0.8-2.7l-0.9,0.6C426.7,252.8,425.9,251.4,424.9,250.4z"/>
			<path class="st0" d="M434.9,250.4c-1,1.1-1.8,2.4-2.2,4l-0.9-0.6c0.4,0.7,0.7,1.8,0.8,2.7c0.5-0.7,1.2-1.6,1.9-2.1l-1.1,0.1
				c0.4-1.4,1.1-2.7,2.1-3.7c0.1-0.1,0.1-0.4,0-0.5C435.2,250.2,435,250.2,434.9,250.4z"/>
			<path class="st0" d="M430.3,253.3c0-0.2-0.2-0.4-0.4-0.4s-0.4,0.2-0.4,0.4v3.2l-0.7-0.3c0.4,0.5,0.8,1.2,1,1.8
				c0.2-0.6,0.6-1.4,1-1.8l-0.7,0.3V253.3z"/>
		</g>
		<text transform="matrix(1 0 0 1 370.6665 247)" class="st0 st3 st5">Aggregate</text>
	</g>
	<g>
		<path class="st0" d="M437.7,274.3l-1.5-1.6l0.1-0.1c0.5-0.6,0.6-1.4,0.1-2.1c0.4-0.5,0.3-1.2-0.1-1.7l-0.8-0.8
			c-0.4-0.5-1.1-0.5-1.6-0.1c-0.6-0.5-1.4-0.4-2,0.1l-0.1,0.1l-1.4-1.5c-0.4-0.5-1.1-0.5-1.6,0c-0.4,0.5-0.4,1.2,0,1.7l1.4,1.5
			l-1.2,1.3c-0.5,0.6-0.6,1.4-0.1,2.1l-2.3,2.5c-0.4,0.4-0.5,0.9-0.3,1.4l-1.1,1.1l-0.2-0.1c-0.2-0.1-0.5,0-0.6,0.3
			c-0.1,0.2,0,0.4,0.1,0.5c0,0,0,0,0,0l-0.4,0.4l-0.2-0.1c-0.2-0.1-0.5,0-0.6,0.3c-0.1,0.2,0,0.4,0.1,0.5c0,0,0,0,0,0l-0.4,0.4
			l-0.2-0.1c-0.2-0.1-0.5,0-0.6,0.3c-0.1,0.2,0,0.4,0.1,0.5c0,0,0,0,0,0l-0.4,0.4l-0.2-0.1c-0.2-0.1-0.5,0-0.6,0.3
			c-0.1,0.2,0,0.4,0.1,0.5c0,0,0,0,0,0l-0.1,0.1c-0.1,0.1-0.1,0.1-0.1,0.2l-0.3,1.1c0,0.2,0,0.3,0.1,0.4c0.1,0.1,0.3,0.2,0.4,0.1
			l1.1-0.3c0.1,0,0.1-0.1,0.2-0.1l0.7-0.8l0.2,0.1c0.2,0.1,0.5,0,0.6-0.3c0.1-0.2,0-0.4-0.1-0.5l0.4-0.4l0.2,0.1
			c0.2,0.1,0.5,0,0.6-0.3c0.1-0.2,0-0.3-0.1-0.5l0.4-0.4l0.2,0.1c0.2,0.1,0.5,0,0.6-0.3c0.1-0.2,0-0.4-0.1-0.5l0.4-0.4l0.2,0.1
			c0.2,0.1,0.5,0,0.6-0.3c0.1-0.2,0-0.4-0.1-0.5l0.4-0.5c0.5,0.2,1.1,0.2,1.4-0.3l2.3-2.5c0.6,0.5,1.4,0.4,1.9-0.2l1.2-1.3l1.5,1.6
			c0.4,0.5,1.1,0.5,1.6,0C438.1,275.5,438.1,274.8,437.7,274.3z M422.2,283l-0.3,0.1l0.1-0.3l0.3-0.3l0.3,0.1L422.2,283z
			 M423.2,281.9l-0.3-0.1l0.4-0.4l0.3,0.1L423.2,281.9z M424.3,280.8l-0.3-0.1l0.4-0.4l0.3,0.1L424.3,280.8z M425.3,279.7l-0.3-0.1
			l0.4-0.4l0.3,0.1L425.3,279.7z M433.9,269.1l0.5-0.5c0,0,0.1-0.1,0.2-0.1c0.1,0,0.3,0,0.4,0.1l0.8,0.8c0.1,0.1,0.1,0.3,0.1,0.4
			c0,0.1,0,0.1-0.1,0.2l-0.5,0.5l-1.7,1.8c-0.1,0.1-0.4,0.1-0.5,0l-0.8-0.8c-0.2-0.2-0.2-0.4,0-0.6L433.9,269.1z M429.4,267.7
			c-0.1-0.1-0.1-0.3,0-0.4c0.1-0.1,0.3-0.1,0.4,0l1.4,1.5l-0.4,0.4L429.4,267.7z M426.3,278.6l-0.3-0.1l0.7-0.7l0.2,0.2L426.3,278.6
			z M428.4,277.7c-0.2,0.2-0.4,0.2-0.6,0l0,0l-0.7-0.7c-0.2-0.2-0.2-0.4,0-0.6l2.3-2.5l1.3,1.4L428.4,277.7z M432.7,275
			c-0.2,0.3-0.7,0.3-0.9,0l-2.2-2.3c-0.2-0.3-0.2-0.7,0-1l2.9-3.1c0.2-0.2,0.5-0.2,0.7-0.1l-1.6,1.7c-0.5,0.5-0.5,1.3,0,1.8l0.8,0.8
			c0.5,0.5,1.3,0.5,1.7,0l1.6-1.7c0.1,0.3,0.1,0.6-0.1,0.8L432.7,275z M437.1,275.3c-0.1,0.1-0.3,0.1-0.4,0l-1.5-1.6l0.4-0.4
			l1.5,1.6C437.2,275.1,437.2,275.2,437.1,275.3z"/>
		<text transform="matrix(1 0 0 1 369.6665 277)" class="st0 st3 st5">Drill down</text>
	</g>
</g>
<text transform="matrix(1 0 0 1 195.6467 477)"><tspan x="0" y="0" class="st0 st3 st4">Combine the dataset  </tspan><tspan x="-16.8" y="14.4" class="st0 st3 st4">with additional parameters...</tspan></text>
<text transform="matrix(1 0 0 1 150.4758 615)" class="st0 st3 st4">...and submit it to the analysis algorithm.</text>
<text transform="matrix(1 0 0 1 119.2786 739)"><tspan x="0" y="0" class="st0 st3 st4">The outcome of the process is a set of visualizations. </tspan><tspan x="-8.6" y="14.4" class="st0 st3 st4">You can modify the dataset and parameters and repeat.</tspan></text>
<g>
	<g>
		<path class="st0" d="M60,295.5v1.2h1.2l4.6,8.4v6.4l3.8,2.5v-8.9l4.6-8.4h1.2v-1.2H61.9H60L60,295.5z M66.7,310.9v-5.8l-4.6-8.4
			l11.1,0l-4.6,8.4v7L66.7,310.9z"/>
		<text transform="matrix(1 0 0 1 85.6665 308)" class="st0 st3 st5">Filter</text>
	</g>
	<g>
		<g>
			<path class="st0" d="M72.9,270.4l2,2.2l2,2.2h-2.1v7.3c0,1.1-0.9,2-2,2H72h-1.1h-1.8c-0.4,0-0.7-0.3-0.7-0.7l0,0
				c0-0.4,0.3-0.7,0.7-0.7H70c0.4,0,0.9-0.5,0.9-0.9v-7h-2.1l2-2.2L72.9,270.4z M63.1,284.1l-2-2.2l-2-2.2h2.1v-7.3c0-1.1,0.9-2,2-2
				H64h1.1h1.8c0.4,0,0.7,0.3,0.7,0.7l0,0c0,0.4-0.3,0.7-0.7,0.7H66c-0.4,0-0.9,0.4-0.9,0.9v7.1h2.1l-2,2.2L63.1,284.1z"/>
		</g>
		<text transform="matrix(1 0 0 1 85.6665 281)" class="st0 st3 st5">Sort</text>
	</g>
	<g>
		<g transform="translate(0,-952.36218)">
			<path class="st0" d="M61.5,1192.4c-0.8,0-1.5,0.7-1.5,1.5v1.9c0,0.8,0.7,1.5,1.5,1.5h1.9c0.8,0,1.5-0.7,1.5-1.5v-1.9
				c0-0.8-0.7-1.5-1.5-1.5H61.5z M67,1192.4c-0.8,0-1.5,0.7-1.5,1.5v13.1c0,0.8,0.7,1.5,1.5,1.5H69c0.8,0,1.5-0.7,1.5-1.5v-13.1
				c0-0.8-0.7-1.5-1.5-1.5H67z M72.6,1192.4c-0.8,0-1.5,0.7-1.5,1.5v1.9c0,0.8,0.7,1.5,1.5,1.5h1.9c0.8,0,1.5-0.7,1.5-1.5v-1.9
				c0-0.8-0.7-1.5-1.5-1.5H72.6z M61.5,1193.3h1.9c0.3,0,0.5,0.2,0.5,0.5v1.9c0,0.3-0.2,0.5-0.5,0.5h-1.9c-0.3,0-0.5-0.2-0.5-0.5
				v-1.9C61,1193.5,61.2,1193.3,61.5,1193.3z M67,1193.3H69c0.3,0,0.5,0.2,0.5,0.5v13.1c0,0.3-0.2,0.5-0.5,0.5H67
				c-0.3,0-0.5-0.2-0.5-0.5v-13.1C66.5,1193.5,66.8,1193.3,67,1193.3z M72.6,1193.3h1.9c0.3,0,0.5,0.2,0.5,0.5v1.9
				c0,0.3-0.2,0.5-0.5,0.5h-1.9c-0.3,0-0.5-0.2-0.5-0.5v-1.9C72.1,1193.5,72.3,1193.3,72.6,1193.3z M61.5,1197.9
				c-0.8,0-1.5,0.7-1.5,1.5v1.9c0,0.8,0.7,1.5,1.5,1.5h1.9c0.8,0,1.5-0.7,1.5-1.5v-1.9c0-0.8-0.7-1.5-1.5-1.5H61.5z M72.6,1197.9
				c-0.8,0-1.5,0.7-1.5,1.5v1.9c0,0.8,0.7,1.5,1.5,1.5h1.9c0.8,0,1.5-0.7,1.5-1.5v-1.9c0-0.8-0.7-1.5-1.5-1.5H72.6z M61.5,1198.9
				h1.9c0.3,0,0.5,0.2,0.5,0.5v1.9c0,0.3-0.2,0.5-0.5,0.5h-1.9c-0.3,0-0.5-0.2-0.5-0.5v-1.9C61,1199.1,61.2,1198.9,61.5,1198.9z
				 M72.6,1198.9h1.9c0.3,0,0.5,0.2,0.5,0.5v1.9c0,0.3-0.2,0.5-0.5,0.5h-1.9c-0.3,0-0.5-0.2-0.5-0.5v-1.9
				C72.1,1199.1,72.3,1198.9,72.6,1198.9z M61.5,1203.5c-0.8,0-1.5,0.7-1.5,1.5v1.9c0,0.8,0.7,1.5,1.5,1.5h1.9
				c0.8,0,1.5-0.7,1.5-1.5v-1.9c0-0.8-0.7-1.5-1.5-1.5H61.5z M72.6,1203.5c-0.8,0-1.5,0.7-1.5,1.5v1.9c0,0.8,0.7,1.5,1.5,1.5h1.9
				c0.8,0,1.5-0.7,1.5-1.5v-1.9c0-0.8-0.7-1.5-1.5-1.5H72.6z M61.5,1204.5h1.9c0.3,0,0.5,0.2,0.5,0.5v1.9c0,0.3-0.2,0.5-0.5,0.5
				h-1.9c-0.3,0-0.5-0.2-0.5-0.5v-1.9C61,1204.7,61.2,1204.5,61.5,1204.5z M72.6,1204.5h1.9c0.3,0,0.5,0.2,0.5,0.5v1.9
				c0,0.3-0.2,0.5-0.5,0.5h-1.9c-0.3,0-0.5-0.2-0.5-0.5v-1.9C72.1,1204.7,72.3,1204.5,72.6,1204.5z"/>
		</g>
		<text transform="matrix(1 0 0 1 85.6665 253)" class="st0 st3 st5">Select</text>
	</g>
</g>
<text transform="matrix(1 0 0 1 200.3569 542)"><tspan x="0" y="0" class="st0 st3 st5">Column </tspan><tspan x="-1.9" y="12" class="st0 st3 st5">selectors</tspan></text>
<text transform="matrix(1 0 0 1 262.6465 542)"><tspan x="0" y="0" class="st0 st3 st5">Numeric </tspan><tspan x="-6" y="12" class="st0 st3 st5">parameters</tspan></text>
<text transform="matrix(1 0 0 1 61.6665 220)" class="st0 st6 st5">Facts</text>
<text transform="matrix(1 0 0 1 404.6665 220)" class="st0 st6 st5">Aggregated</text>
<g>
	<g>
		<path class="st0" d="M273.1,387.3h-48c-0.3,0-0.5,0.2-0.5,0.5v36c0,0.3,0.2,0.5,0.5,0.5h48c0.3,0,0.5-0.2,0.5-0.5v-36
			C273.6,387.6,273.4,387.3,273.1,387.3z M272.6,393.3h-15v-5h15V393.3z M241.6,393.3v-5h15v5H241.6z M256.6,394.3v29h-15v-29H256.6
			z M240.6,388.3v5h-15v-5H240.6z M225.6,394.3h15v29h-15V394.3z M257.6,423.3v-29h15v29H257.6z"/>
		<path class="st0" d="M235.1,405.3h-4c-0.3,0-0.5,0.2-0.5,0.5s0.2,0.5,0.5,0.5h4c0.3,0,0.5-0.2,0.5-0.5S235.4,405.3,235.1,405.3z"
			/>
		<path class="st0" d="M235.1,411.3h-4c-0.3,0-0.5,0.2-0.5,0.5s0.2,0.5,0.5,0.5h4c0.3,0,0.5-0.2,0.5-0.5S235.4,411.3,235.1,411.3z"
			/>
		<path class="st0" d="M235.1,417.3h-4c-0.3,0-0.5,0.2-0.5,0.5s0.2,0.5,0.5,0.5h4c0.3,0,0.5-0.2,0.5-0.5S235.4,417.3,235.1,417.3z"
			/>
		<path class="st0" d="M247.1,406.3h4c0.3,0,0.5-0.2,0.5-0.5s-0.2-0.5-0.5-0.5h-4c-0.3,0-0.5,0.2-0.5,0.5S246.9,406.3,247.1,406.3z"
			/>
		<path class="st0" d="M247.1,412.3h4c0.3,0,0.5-0.2,0.5-0.5s-0.2-0.5-0.5-0.5h-4c-0.3,0-0.5,0.2-0.5,0.5S246.9,412.3,247.1,412.3z"
			/>
		<path class="st0" d="M251.1,417.3h-4c-0.3,0-0.5,0.2-0.5,0.5s0.2,0.5,0.5,0.5h4c0.3,0,0.5-0.2,0.5-0.5S251.4,417.3,251.1,417.3z"
			/>
		<path class="st0" d="M267.1,405.3h-4c-0.3,0-0.5,0.2-0.5,0.5s0.2,0.5,0.5,0.5h4c0.3,0,0.5-0.2,0.5-0.5S267.4,405.3,267.1,405.3z"
			/>
		<path class="st0" d="M267.1,411.3h-4c-0.3,0-0.5,0.2-0.5,0.5s0.2,0.5,0.5,0.5h4c0.3,0,0.5-0.2,0.5-0.5S267.4,411.3,267.1,411.3z"
			/>
		<path class="st0" d="M267.1,417.3h-4c-0.3,0-0.5,0.2-0.5,0.5s0.2,0.5,0.5,0.5h4c0.3,0,0.5-0.2,0.5-0.5S267.4,417.3,267.1,417.3z"
			/>
		<path class="st0" d="M231.1,400.3h4c0.3,0,0.5-0.2,0.5-0.5s-0.2-0.5-0.5-0.5h-4c-0.3,0-0.5,0.2-0.5,0.5S230.9,400.3,231.1,400.3z"
			/>
		<path class="st0" d="M247.1,400.3h4c0.3,0,0.5-0.2,0.5-0.5s-0.2-0.5-0.5-0.5h-4c-0.3,0-0.5,0.2-0.5,0.5S246.9,400.3,247.1,400.3z"
			/>
		<path class="st0" d="M267.1,399.3h-4c-0.3,0-0.5,0.2-0.5,0.5s0.2,0.5,0.5,0.5h4c0.3,0,0.5-0.2,0.5-0.5S267.4,399.3,267.1,399.3z"
			/>
	</g>
</g>
<g>
	<path class="st7" d="M71.7,323.9v14.2h-9.3v-14.2H71.7 M76.6,325.9v10.3h-3.4v-10.3H76.6 M61,325.9v10.3h-3.4v-10.3H61 M72,323.7
		h-9.8v14.7H72V323.7L72,323.7z M76.9,325.6H73v10.8h3.9V325.6L76.9,325.6z M61.2,325.6h-3.9v10.8h3.9V325.6L61.2,325.6z"/>
</g>
<text transform="matrix(1 0 0 1 85.2279 333.9308)" class="st0 st3 st5">Paginate</text>
<g>
	<g>
		<path class="st7" d="M438.3,345.2v14.2H429v-14.2H438.3 M443.2,347.2v10.3h-3.4v-10.3H443.2 M427.5,347.2v10.3h-3.4v-10.3H427.5
			 M438.5,345h-9.8v14.7h9.8V345L438.5,345z M443.4,347h-3.9v10.8h3.9V347L443.4,347z M427.8,347h-3.9v10.8h3.9V347L427.8,347z"/>
	</g>
	<text transform="matrix(1 0 0 1 377.7865 355.2639)" class="st0 st3 st5">Paginate</text>
</g>
<rect x="31" y="203" class="st8" width="105.3" height="149.3"/>
<rect x="353.7" y="195" class="st8" width="116" height="175.8"/>
<g>
	<g>
		<line class="st9" x1="250" y1="76.3" x2="250" y2="89"/>
		<g>
			<path class="st0" d="M250,86.3l5.4-3.3l0.1,0.2L252,92c-0.7,3.1-1.4,6.1-2,9.2c-0.7-3.1-1.4-6.1-2-9.2l-3.5-8.8l0.1-0.2L250,86.3
				z"/>
		</g>
	</g>
</g>
<g>
	<g>
		<line class="st9" x1="136.3" y1="156.9" x2="123.7" y2="156.9"/>
		<g>
			<path class="st0" d="M126.4,156.9l3.3,5.4l-0.2,0.1l-8.8-3.5c-3.1-0.7-6.1-1.4-9.2-2c3.1-0.7,6.1-1.4,9.2-2l8.8-3.5l0.2,0.1
				L126.4,156.9z"/>
		</g>
	</g>
</g>
<g>
	<g>
		<line class="st9" x1="365.3" y1="156.9" x2="378" y2="156.9"/>
		<g>
			<path class="st0" d="M375.3,156.9l-3.3-5.4l0.2-0.1l8.8,3.5c3.1,0.7,6.1,1.4,9.2,2c-3.1,0.7-6.1,1.4-9.2,2l-8.8,3.5l-0.2-0.1
				L375.3,156.9z"/>
		</g>
	</g>
</g>
<g>
	<g>
		<line class="st10" x1="70.3" y1="186.3" x2="70.3" y2="193.9"/>
		<g>
			<path class="st0" d="M70.3,192.8l2.2-1.3l0,0.1l-1.4,3.5c-0.3,1.2-0.5,2.5-0.8,3.7c-0.3-1.2-0.5-2.5-0.8-3.7l-1.4-3.5l0-0.1
				L70.3,192.8z"/>
		</g>
	</g>
</g>
<g>
	<g>
		<line class="st10" x1="430.4" y1="177.8" x2="430.4" y2="185.3"/>
		<g>
			<path class="st0" d="M430.4,184.2l2.2-1.3l0,0.1l-1.4,3.5c-0.3,1.2-0.5,2.5-0.8,3.7c-0.3-1.2-0.5-2.5-0.8-3.7l-1.4-3.5l0-0.1
				L430.4,184.2z"/>
		</g>
	</g>
</g>
<g>
	<g>
		<line class="st10" x1="430.4" y1="177.8" x2="430.4" y2="185.3"/>
		<g>
			<path class="st0" d="M430.4,184.2l2.2-1.3l0,0.1l-1.4,3.5c-0.3,1.2-0.5,2.5-0.8,3.7c-0.3-1.2-0.5-2.5-0.8-3.7l-1.4-3.5l0-0.1
				L430.4,184.2z"/>
		</g>
	</g>
</g>
<g>
	<g>
		<path class="st9" d="M72,360c4.1,10.6,11.4,24.8,25,37c31.7,28.5,74.4,25.4,95.1,21.7"/>
		<g>
			<path class="st0" d="M189.4,419.2l-4.4-4.6l0.2-0.2l9.4,1.5c3.1,0,6.3,0,9.4,0c-2.9,1.3-5.7,2.6-8.6,3.9l-7.9,5.3l-0.2-0.1
				L189.4,419.2z"/>
		</g>
	</g>
</g>
<g>
	<g>
		<line class="st9" x1="250" y1="434.6" x2="250" y2="447.2"/>
		<g>
			<path class="st0" d="M250,444.5l5.4-3.3l0.1,0.2l-3.5,8.8c-0.7,3.1-1.4,6.1-2,9.2c-0.7-3.1-1.4-6.1-2-9.2l-3.5-8.8l0.1-0.2
				L250,444.5z"/>
		</g>
	</g>
</g>
<g>
	<g>
		<line class="st9" x1="251.7" y1="576.9" x2="251.7" y2="589.5"/>
		<g>
			<path class="st0" d="M251.7,586.9l5.4-3.3l0.1,0.2l-3.5,8.8c-0.7,3.1-1.4,6.1-2,9.2c-0.7-3.1-1.4-6.1-2-9.2l-3.5-8.8l0.1-0.2
				L251.7,586.9z"/>
		</g>
	</g>
</g>
<g>
	<g>
		<path class="st9" d="M423.3,375.3c-4,8.5-11.2,19.9-24.4,29.7c-30.8,22.7-72.2,20.5-92.5,17.5"/>
		<g>
			<path class="st0" d="M309,422.9l2.3,5.9l-0.2,0.1l-8.1-5c-2.9-1.2-5.8-2.4-8.7-3.6c3.1-0.1,6.3-0.3,9.4-0.4l9.3-1.9l0.2,0.1
				L309,422.9z"/>
		</g>
	</g>
</g>
<g>
	<g>
		<line class="st9" x1="251.7" y1="699.9" x2="251.7" y2="712.6"/>
		<g>
			<path class="st0" d="M251.7,709.9l5.4-3.3l0.1,0.2l-3.5,8.8c-0.7,3.1-1.4,6.1-2,9.2c-0.7-3.1-1.4-6.1-2-9.2l-3.5-8.8l0.1-0.2
				L251.7,709.9z"/>
		</g>
	</g>
</g>
</svg>
