<?xml version="1.0" encoding="utf-8"?>
<!-- Generator: Adobe Illustrator 21.0.0, SVG Export Plug-In . SVG Version: 6.00 Build 0)  -->
<svg version="1.1" id="Layer_1" xmlns="http://www.w3.org/2000/svg" xmlns:xlink="http://www.w3.org/1999/xlink" x="0px" y="0px"
	 viewBox="0 0 500 800" style="enable-background:new 0 0 500 800;" xml:space="preserve">
<style type="text/css">
	.st0{fill:#50B958;}
	.st1{font-family:'Cabin';}
	.st2{font-size:9.7674px;}
	.st3{font-family:'Cabin';}
	.st4{font-size:12px;}
	.st5{font-size:10px;}
	.st6{font-family:'Cabin'; font-weight:bold;}
</style>
<g>
	<path class="st0" d="M438.9,152.7c-0.2-0.3-0.4-0.5-0.7-0.6c-0.3-0.1-0.6,0-0.9,0.1l-8.4,4.8l-4.7-2.7c-0.4-0.2-0.8-0.2-1.2,0
		l-5.6,3.3c-0.4,0.2-0.6,0.6-0.6,1v5.8l-8.2,4.7c-0.6,0.3-0.8,1.1-0.4,1.6l12,20.7c0.2,0.3,0.4,0.5,0.7,0.6c0.1,0,0.2,0,0.3,0
		c0.2,0,0.4-0.1,0.6-0.2l8.9-5.1l3.7,2.1c0.4,0.2,0.8,0.2,1.2,0l5.6-3.3c0.4-0.2,0.6-0.6,0.6-1V180l8.7-5c0.6-0.3,0.8-1,0.4-1.6
		L438.9,152.7z M437.7,153.9l3.5,6.2l-4.3,2.5l-1-0.6l-3-5.3L437.7,153.9z M421.8,172.7l3.2-1.8l3.5,6.1l-3.2,1.8L421.8,172.7z
		 M424.5,179.3l-3.2,1.8l-3.5-6.1l3.2-1.8L424.5,179.3z M426.6,160.7l3.5,6.2l-4.8,2.8l-3.5-6.1L426.6,160.7z M425.8,170.4l4.8-2.8
		l3.5,6.2l-4.8,2.8L425.8,170.4z M430.3,165.2L430.3,165.2l4.6-2.8l4.7,2.7l-4.7,2.7L430.3,165.2z M429.3,159.2l4.7,2.7l-4.2,2.4
		l-2.4-4.1L429.3,159.2z M423.6,155.9l4.7,2.7l-1.8,1c0,0,0,0,0,0l-2.9,1.7l-4.7-2.7L423.6,155.9z M421,163.9l3.5,6.1l-3.2,1.8
		l-3.5-6.1L421,163.9z M417,166.2l3.5,6.1l-3.2,1.8l-3.5-6.1L417,166.2z M409.8,170.4l3.2-1.8l3.5,6.1l-3.2,1.8L409.8,170.4z
		 M413.8,177.3l3.2-1.8l3.5,6.1l-3.2,1.8L413.8,177.3z M421.3,190.3l-3.5-6.1l3.2-1.8l3.5,6.1L421.3,190.3z M425.3,188l-3.5-6.1
		l3.2-1.8l3.5,6.1L425.3,188z M429.3,185.7l-3.5-6.1l3.2-1.8l3.5,6.1L429.3,185.7z M433.3,183.4l-3.5-6.1l4.8-2.8l3.5,6.1
		L433.3,183.4z M440.1,184.4l-4.7,2.7v-3.9l3.6-2.1c0.2-0.1,0.3-0.4,0.2-0.6l-0.5-0.8l1.4-0.8C440.1,179,440.1,184.4,440.1,184.4z
		 M440.1,177.9l-1.9,1.1l-2.4-4.1l4.3-2.5V177.9z M440.1,171.4l-4.7,2.7l0,0v-5.4l4.7-2.7V171.4z M441,165C441,165,441,165,441,165
		c0-0.1,0-0.1,0-0.1c0,0,0-0.1-0.1-0.1c0,0,0,0,0,0c0,0,0,0-0.1-0.1c0,0,0,0,0,0l-2.9-1.7l3.9-2.2l3.5,6.2l-4.2,2.5v-4.3
		C441,165.1,441,165.1,441,165C441,165.1,441,165.1,441,165z M444.4,176.6l-3.4-5.9v-0.3l4.7-2.7l3.5,6.1L444.4,176.6z"/>
</g>
<g>
	<path class="st0" d="M87.9,80.8c0-2-1.6-3.5-3.5-3.5c-0.1,0-0.2,0-0.3,0l0,0H60.9h-0.1c-1.9,0.1-3.5,1.6-3.5,3.5v9.6h-4.2v14.4h4.2
		v2.2h-5.5v0.4c0,0,0,0.8,0,1.1c0,1.9,1.3,3.3,3.1,3.3h23.2l0,0c2,0.1,3.6-1.6,3.6-3.5V95.3l6.3-0.2L87.9,80.8z M53.9,91.3h9.9V104
		h-9.9C53.9,104,53.9,91.3,53.9,91.3z M54.8,111c-1.3,0-2.3-1.1-2.3-2.4c0-0.2,0-0.4,0-0.7h22c0,0.2-0.1,0.3-0.1,0.4
		c0,1.1,0.5,2.1,1.3,2.8L54.8,111L54.8,111z M80.8,80.8v27.4c0,1.5-1.2,2.7-2.7,2.7c-1.5,0-2.7-1.2-2.7-2.7c0-0.2,0.1-0.5,0.1-0.7
		l0.1-0.4h-0.5h-17v-2.1h6.6V90.5h-6.6v-9.6c0-1.5,1.2-2.7,2.7-2.7h21.3C81.4,78.8,80.8,79.7,80.8,80.8z M81.6,94.4V80.8
		c0-1.5,1.2-2.7,2.7-2.7c1.5,0,2.7,1.2,2.7,2.7v13.5L81.6,94.4z"/>
	<path class="st0" d="M54.6,95.6h8.6v-3.5h-8.6V95.6z M55.4,93h7v1.8h-7V93z"/>
	<rect x="56" y="99.5" transform="matrix(0.7071 -0.7071 0.7071 0.7071 -53.3686 70.915)" class="st0" width="5.7" height="0.8"/>
	<path class="st0" d="M60.4,100.2c-0.7,0-1.3,0.6-1.3,1.3c0,0.7,0.6,1.3,1.3,1.3c0.7,0,1.3-0.6,1.3-1.3
		C61.7,100.8,61.1,100.2,60.4,100.2z M60.4,101.9c-0.2,0-0.4-0.2-0.4-0.4s0.2-0.4,0.4-0.4c0.2,0,0.4,0.2,0.4,0.4
		C60.9,101.7,60.6,101.9,60.4,101.9z"/>
	<path class="st0" d="M58.6,98.4c0-0.7-0.6-1.3-1.3-1.3c-0.7,0-1.3,0.6-1.3,1.3c0,0.7,0.6,1.3,1.3,1.3C58,99.7,58.6,99.1,58.6,98.4z
		 M56.9,98.4c0-0.2,0.2-0.4,0.4-0.4s0.4,0.2,0.4,0.4s-0.2,0.4-0.4,0.4C57.1,98.9,56.9,98.6,56.9,98.4z"/>
	<path class="st0" d="M71.9,93c3.5,0,6.4-2.9,6.4-6.4s-2.9-6.4-6.4-6.4s-6.4,2.9-6.4,6.4S68.4,93,71.9,93z M71.9,81.1
		c3,0,5.5,2.5,5.5,5.5s-2.5,5.5-5.5,5.5s-5.5-2.5-5.5-5.5S68.9,81.1,71.9,81.1z"/>
	<rect x="66.8" y="102.9" class="st0" width="11.6" height="0.8"/>
	<rect x="68.8" y="99.9" class="st0" width="9.6" height="0.8"/>
	<rect x="70.9" y="96.9" class="st0" width="7.5" height="0.8"/>
	<text transform="matrix(1 0 0 1 68.6753 90.1675)" class="st0 st1 st2">€</text>
</g>
<g>
	<g>
		<path class="st0" d="M432.6,714.9c-9,0-16.3-7.3-16.3-16.3c0-8.1,6-15,13.9-16.1c0.3,0,0.7,0.2,0.7,0.6c0,0.3-0.2,0.7-0.6,0.7
			c-7.2,1-12.8,7.4-12.8,14.8c0,8.3,6.7,15,15,15c8.3,0,15-6.7,15-15c0-0.4,0.3-0.7,0.7-0.7s0.7,0.3,0.7,0.7
			C448.9,707.6,441.6,714.9,432.6,714.9z"/>
	</g>
	<g>
		<path class="st0" d="M433,689.6c-0.1,0-0.2,0-0.3-0.1c-0.2-0.1-0.3-0.3-0.3-0.6v-12.3c0-0.2,0.1-0.4,0.3-0.6
			c0.2-0.1,0.4-0.1,0.7,0l10.7,6.2c0.2,0.1,0.3,0.3,0.3,0.6c0,0.2-0.1,0.4-0.3,0.6l-10.7,6.2C433.3,689.6,433.1,689.6,433,689.6z
			 M433.7,677.8v10l8.7-5L433.7,677.8z"/>
	</g>
</g>
<path class="st0" d="M56.8,664v60.7H88V664H56.8z M87,723.8H57.6V665H87V723.8z M64.8,676h-2.7v11.8h2.7V676z M68.3,679.8h-2.7v8
	h2.7V679.8z M71.9,684.2h-2.7v3.6h2.7V684.2z M72.7,685.9v1.9h2.7v-1.9H72.7z M83.4,706.1H61.5v2.7h21.9V706.1z M69.7,710.5h-8.2
	v2.7h8.2V710.5z M64.9,714.9h-3.4v2.7h3.4V714.9z M62.7,701.5c0,1.4,1.1,2.5,2.5,2.5c1.4,0,2.5-1.1,2.5-2.5c0-1.4-1.1-2.5-2.5-2.5
	C63.8,699,62.7,700.1,62.7,701.5z M65.2,701c0.3,0,0.5,0.2,0.5,0.5c0,0.3-0.2,0.5-0.5,0.5c-0.3,0-0.5-0.2-0.5-0.5
	C64.8,701.2,65,701,65.2,701z M71.3,693c-0.3-0.1-0.6-0.1-0.9-0.1c-2.3,0-4.1,1.8-4.1,4.1s1.8,4.1,4.1,4.1c0.3,0,0.6,0,0.9-0.1
	c1.2,1.5,3,2.5,5.1,2.5c3.6,0,6.5-2.9,6.5-6.5c0-3.6-2.9-6.5-6.5-6.5C74.3,690.5,72.5,691.4,71.3,693z M70.2,699
	c-1.1-0.1-1.9-0.9-1.9-2c0-1.1,0.8-1.9,1.9-2c-0.2,0.6-0.3,1.3-0.3,2C69.9,697.7,70,698.3,70.2,699z M76.4,692.5
	c2.4,0,4.4,2,4.4,4.4c0,2.4-2,4.4-4.4,4.4c-1.3,0-2.5-0.6-3.3-1.4c0.8-0.7,1.3-1.8,1.3-3c0-1.2-0.5-2.2-1.3-3
	C74,693.1,75.1,692.5,76.4,692.5z M72.1,695.9c0.2,0.3,0.3,0.7,0.3,1s-0.1,0.7-0.3,1c-0.1-0.3-0.1-0.7-0.1-1
	C72,696.6,72,696.2,72.1,695.9z M77.8,680c3.2,0,5.9-2.6,5.9-5.9c0-3.2-2.6-5.9-5.9-5.9c-3.2,0-5.9,2.6-5.9,5.9
	C72,677.4,74.6,680,77.8,680z M78.9,670.5c1.6,0.5,2.8,1.9,2.8,3.7c0,0.2,0,0.4,0,0.6l-2.7-1.2L78.9,670.5L78.9,670.5z M78.1,675.5
	l2.6,1.2c-0.7,0.8-1.7,1.4-2.9,1.4c-0.5,0-1-0.1-1.4-0.3L78.1,675.5z M76.8,670.5v3.3l-2,2.6c-0.5-0.6-0.7-1.4-0.7-2.2
	C74,672.4,75.2,671,76.8,670.5z"/>
<g>
	<path class="st0" d="M228.5,611.7c0.2,0,0.4-0.1,0.4-0.4v-7.7c0-0.2-0.1-0.4-0.4-0.4c-0.2,0-0.4,0.1-0.4,0.4v7.8
		C228.1,611.6,228.3,611.7,228.5,611.7z"/>
	<path class="st0" d="M228.5,616.8c0.2,0,0.4-0.1,0.4-0.4v-2.5c0-0.2-0.1-0.4-0.4-0.4c-0.2,0-0.4,0.1-0.4,0.4v2.5
		C228.1,616.7,228.3,616.8,228.5,616.8z"/>
	<path class="st0" d="M281.9,633.1c-0.2,0-0.4,0.1-0.4,0.4v7.8c0,0.2,0.1,0.4,0.4,0.4c0.2,0,0.4-0.1,0.4-0.4v-7.8
		C282.3,633.3,282.1,633.1,281.9,633.1z"/>
	<path class="st0" d="M281.9,643.4c-0.2,0-0.4,0.1-0.4,0.4v2.5c0,0.2,0.1,0.4,0.4,0.4c0.2,0,0.4-0.1,0.4-0.4v-2.5
		C282.3,643.6,282.1,643.4,281.9,643.4z"/>
	<path class="st0" d="M274.9,616.7l-0.8-0.8c-0.1-0.1-0.4-0.1-0.5,0c-0.1,0.1-0.1,0.4,0,0.5l0.8,0.8c0,0,0.1,0.1,0.2,0.1
		c0.1,0,0.2,0,0.2-0.1C275.1,617.1,275.1,616.9,274.9,616.7z"/>
	<path class="st0" d="M276.2,619.1l0.8,0.8c0,0,0.1,0.1,0.2,0.1c0.1,0,0.2,0,0.2-0.1c0.1-0.1,0.1-0.4,0-0.5l-0.8-0.8
		c-0.1-0.1-0.4-0.1-0.5,0C276.1,618.7,276.1,618.9,276.2,619.1z"/>
	<path class="st0" d="M274.4,618.5l-0.8,0.8c-0.1,0.1-0.1,0.4,0,0.5c0,0,0.1,0.1,0.2,0.1c0.1,0,0.2,0,0.2-0.1l0.8-0.8
		c0.1-0.1,0.1-0.4,0-0.5C274.8,618.4,274.5,618.4,274.4,618.5z"/>
	<path class="st0" d="M276.5,617.3c0.1,0,0.2,0,0.2-0.1l0.8-0.8c0.1-0.1,0.1-0.4,0-0.5c-0.1-0.1-0.4-0.1-0.5,0l-0.8,0.8
		c-0.1,0.1-0.1,0.4,0,0.5C276.3,617.3,276.4,617.3,276.5,617.3z"/>
	<path class="st0" d="M221.1,625.6c0,0,0.1,0.1,0.2,0.1c0.1,0,0.2,0,0.2-0.1c0.1-0.1,0.1-0.4,0-0.5l-0.8-0.8c-0.1-0.1-0.4-0.1-0.5,0
		c-0.1,0.1-0.1,0.4,0,0.5L221.1,625.6z"/>
	<path class="st0" d="M223.8,628.2c0,0,0.1,0.1,0.2,0.1c0.1,0,0.2,0,0.2-0.1c0.1-0.1,0.1-0.4,0-0.5l-0.8-0.8c-0.1-0.1-0.4-0.1-0.5,0
		c-0.1,0.1-0.1,0.4,0,0.5L223.8,628.2z"/>
	<path class="st0" d="M220.6,628.3c0.1,0,0.2,0,0.2-0.1l0.8-0.8c0.1-0.1,0.1-0.4,0-0.5c-0.1-0.1-0.4-0.1-0.5,0l-0.8,0.8
		c-0.1,0.1-0.1,0.4,0,0.5C220.4,628.3,220.5,628.3,220.6,628.3z"/>
	<path class="st0" d="M223.2,625.7c0.1,0,0.2,0,0.2-0.1l0.8-0.8c0.1-0.1,0.1-0.4,0-0.5c-0.1-0.1-0.4-0.1-0.5,0l-0.8,0.8
		c-0.1,0.1-0.1,0.4,0,0.5C223,625.7,223.1,625.7,223.2,625.7z"/>
	<path class="st0" d="M264.4,652c-0.1-0.1-0.4-0.1-0.5,0c-0.1,0.1-0.1,0.4,0,0.5l0.8,0.8c0,0,0.1,0.1,0.2,0.1c0.1,0,0.2,0,0.2-0.1
		c0.1-0.1,0.1-0.4,0-0.5L264.4,652z"/>
	<path class="st0" d="M267,654.6c-0.1-0.1-0.4-0.1-0.5,0c-0.1,0.1-0.1,0.4,0,0.5l0.8,0.8c0,0,0.1,0.1,0.2,0.1c0.1,0,0.2,0,0.2-0.1
		c0.1-0.1,0.1-0.4,0-0.5L267,654.6z"/>
	<path class="st0" d="M264.6,654.6l-0.8,0.8c-0.1,0.1-0.1,0.4,0,0.5c0,0,0.1,0.1,0.2,0.1c0.1,0,0.2,0,0.2-0.1l0.8-0.8
		c0.1-0.1,0.1-0.4,0-0.5C265,654.5,264.8,654.5,264.6,654.6z"/>
	<path class="st0" d="M267.3,652l-0.8,0.8c-0.1,0.1-0.1,0.4,0,0.5c0,0,0.1,0.1,0.2,0.1c0.1,0,0.2,0,0.2-0.1l0.8-0.8
		c0.1-0.1,0.1-0.4,0-0.5C267.7,651.9,267.5,651.9,267.3,652z"/>
	<path class="st0" d="M236.7,601.3c1.2,0,2.2-1,2.2-2.2c0-1.2-1-2.2-2.2-2.2s-2.2,1-2.2,2.2C234.5,600.3,235.5,601.3,236.7,601.3z
		 M236.7,597.7c0.8,0,1.4,0.6,1.4,1.4c0,0.8-0.6,1.4-1.4,1.4s-1.4-0.6-1.4-1.4C235.2,598.3,235.9,597.7,236.7,597.7z"/>
	<path class="st0" d="M247,648.9c-1.2,0-2.2,1-2.2,2.2s1,2.2,2.2,2.2s2.2-1,2.2-2.2S248.1,648.9,247,648.9z M247,652.6
		c-0.8,0-1.4-0.6-1.4-1.4c0-0.8,0.6-1.4,1.4-1.4s1.4,0.6,1.4,1.4C248.4,651.9,247.7,652.6,247,652.6z"/>
	<path class="st0" d="M265.8,599.5h8.4c0.2,0,0.4-0.1,0.4-0.4c0-0.2-0.1-0.4-0.4-0.4h-8.4c-0.2,0-0.4,0.1-0.4,0.4
		C265.5,599.3,265.6,599.5,265.8,599.5z"/>
	<path class="st0" d="M279.7,598.8H277c-0.2,0-0.4,0.1-0.4,0.4c0,0.2,0.1,0.4,0.4,0.4h2.7c0.2,0,0.4-0.1,0.4-0.4
		C280.1,598.9,279.9,598.8,279.7,598.8z"/>
	<path class="st0" d="M279.7,601.6h-5.9c-0.2,0-0.4,0.1-0.4,0.4c0,0.2,0.1,0.4,0.4,0.4h5.9c0.2,0,0.4-0.1,0.4-0.4
		C280.1,601.8,279.9,601.6,279.7,601.6z"/>
	<path class="st0" d="M269.4,601.6c-0.2,0-0.4,0.1-0.4,0.4c0,0.2,0.1,0.4,0.4,0.4h1.9c0.2,0,0.4-0.1,0.4-0.4c0-0.2-0.1-0.4-0.4-0.4
		H269.4z"/>
	<path class="st0" d="M234,656.5h-8.4c-0.2,0-0.4,0.1-0.4,0.4c0,0.2,0.1,0.4,0.4,0.4h8.4c0.2,0,0.4-0.1,0.4-0.4
		C234.3,656.7,234.2,656.5,234,656.5z"/>
	<path class="st0" d="M222.8,656.5h-2.7c-0.2,0-0.4,0.1-0.4,0.4c0,0.2,0.1,0.4,0.4,0.4h2.7c0.2,0,0.4-0.1,0.4-0.4
		C223.2,656.7,223,656.5,222.8,656.5z"/>
	<path class="st0" d="M220.1,654.3h5.9c0.2,0,0.4-0.1,0.4-0.4c0-0.2-0.1-0.4-0.4-0.4h-5.9c-0.2,0-0.4,0.1-0.4,0.4
		S219.9,654.3,220.1,654.3z"/>
	<path class="st0" d="M230.4,654.3c0.2,0,0.4-0.1,0.4-0.4c0-0.2-0.1-0.4-0.4-0.4h-1.9c-0.2,0-0.4,0.1-0.4,0.4c0,0.2,0.1,0.4,0.4,0.4
		H230.4z"/>
	<path class="st0" d="M251.4,619c5,0,9-4,9-9c0-5-4-9-9-9c-5,0-9,4-9,9C242.4,615,246.4,619,251.4,619z M251.4,601.7
		c4.6,0,8.3,3.7,8.3,8.3c0,4.6-3.7,8.3-8.3,8.3s-8.3-3.7-8.3-8.3C243.1,605.5,246.8,601.7,251.4,601.7z"/>
	<path class="st0" d="M257.8,619.4c-0.1-0.2-0.3-0.2-0.5-0.1c-0.2,0.1-0.2,0.3-0.1,0.5l5.6,9.7l-2.8-1c-0.2,0-0.4,0-0.5,0.2
		c0,0.2,0,0.4,0.2,0.5l3.7,1.4c0,0,0.1,0,0.1,0l0,0l0,0c0,0,0.1,0,0.2,0c0,0,0.1,0,0.1-0.1v0c0,0,0,0,0-0.1l0,0l0.6-3.9
		c0-0.2-0.1-0.4-0.3-0.4c-0.2,0-0.4,0.1-0.4,0.3l-0.5,3L257.8,619.4z"/>
	<path class="st0" d="M245.5,619.3c-0.2-0.1-0.4,0-0.5,0.1l-5.7,9.7l-0.5-3c0-0.2-0.2-0.3-0.4-0.3c-0.2,0-0.3,0.2-0.3,0.4l0.6,3.9
		l0,0c0,0,0,0,0,0.1v0c0,0,0,0.1,0.1,0.1c0,0,0.1,0,0.2,0l0,0l0,0c0,0,0.1,0,0.1,0l3.7-1.4c0.2,0,0.3-0.3,0.2-0.5
		c0-0.2-0.3-0.3-0.5-0.2l-2.8,1l5.7-9.7C245.7,619.6,245.6,619.4,245.5,619.3z"/>
	<path class="st0" d="M268.7,630.9c-4.8,0-8.8,3.8-9,8.6H243c-0.2-4.8-4.1-8.6-9-8.6c-5,0-9,4-9,9c0,5,4,9,9,9c4.8,0,8.8-3.8,9-8.6
		h16.7c0.2,4.8,4.1,8.6,9,8.6c5,0,9-4,9-9C277.7,634.9,273.7,630.9,268.7,630.9z M234.1,648.1c-4.6,0-8.3-3.7-8.3-8.3
		s3.7-8.3,8.3-8.3c4.4,0,8.1,3.5,8.3,7.9h-6.1c-0.2-1-1.1-1.9-2.2-1.9c-1.2,0-2.2,1-2.2,2.2s1,2.2,2.2,2.2c1.1,0,2-0.8,2.2-1.9h6.1
		C242.1,644.6,238.5,648.1,234.1,648.1z M235.5,639.9c0,0.8-0.7,1.5-1.5,1.5c-0.8,0-1.5-0.7-1.5-1.5c0-0.8,0.7-1.5,1.5-1.5
		C234.8,638.4,235.5,639.1,235.5,639.9z M268.7,648.1c-4.4,0-8.1-3.5-8.3-7.9h6.1c0.2,1,1.1,1.9,2.2,1.9c1.2,0,2.2-1,2.2-2.2
		s-1-2.2-2.2-2.2c-1.1,0-2,0.8-2.2,1.9h-6c0.2-4.4,3.8-7.9,8.3-7.9c4.6,0,8.3,3.7,8.3,8.3C277,644.4,273.3,648.1,268.7,648.1z
		 M267.2,639.9c0-0.8,0.7-1.5,1.5-1.5c0.8,0,1.5,0.7,1.5,1.5c0,0.8-0.7,1.5-1.5,1.5S267.2,640.7,267.2,639.9z"/>
	<path class="st0" d="M255.8,613.3H247c-0.2,0-0.4,0.1-0.4,0.4c0,0.2,0.1,0.4,0.4,0.4h8.9c0.2,0,0.4-0.1,0.4-0.4
		C256.2,613.5,256,613.3,255.8,613.3z"/>
	<path class="st0" d="M246,611.6h10.8c0.2,0,0.4-0.1,0.4-0.4c0-0.2-0.1-0.4-0.4-0.4H246c-0.2,0-0.4,0.1-0.4,0.4
		S245.8,611.6,246,611.6z"/>
	<path class="st0" d="M246,609.1h10.8c0.2,0,0.4-0.1,0.4-0.4c0-0.2-0.1-0.4-0.4-0.4H246c-0.2,0-0.4,0.1-0.4,0.4
		S245.8,609.1,246,609.1z"/>
	<path class="st0" d="M247,606.6h8.9c0.2,0,0.4-0.1,0.4-0.4c0-0.2-0.1-0.4-0.4-0.4H247c-0.2,0-0.4,0.1-0.4,0.4
		C246.6,606.5,246.7,606.6,247,606.6z"/>
</g>
<g transform="translate(0,-1028.3622)">
	<path class="st0" d="M224,1529.4c-1.9,0-3.6,0.8-4.9,2H215v2h2.7c-0.3,0.6-0.5,1.3-0.6,2H215v2h2.1c0.1,0.7,0.3,1.4,0.6,2H215v2
		h4.1c1.3,1.2,3,2,4.9,2c3.9,0,7-3.1,7-7C231,1532.5,227.9,1529.4,224,1529.4z M224,1531.4c2.8,0,5,2.2,5,5c0,2.8-2.2,5-5,5
		s-5-2.2-5-5C219,1533.6,221.2,1531.4,224,1531.4z"/>
	<path class="st0" d="M215,1527.4v2h6v-2H215z"/>
	<path class="st0" d="M207,1531.4v2h6v-2H207z"/>
	<path class="st0" d="M207,1535.4v2h6v-2H207z"/>
	<path class="st0" d="M207,1539.4v2h6v-2H207z"/>
	<path class="st0" d="M207,1527.4v2h6v-2H207z"/>
	<path class="st0" d="M207,1523.4v2h6v-2H207z"/>
	<path class="st0" d="M207,1519.4v2h6v-2H207z"/>
	<path class="st0" d="M226.3,1533.4l-3.3,3.2l-1.3-1.3l-1.4,1.4l2.7,2.6l4.7-4.6L226.3,1533.4z"/>
</g>
<g>
	<path class="st0" d="M271.8,493.1h-0.7V490c0-0.4-0.4-0.8-0.8-0.8h-2c-0.4,0-0.8,0.4-0.8,0.8v3.1h-0.7c-0.6,0-1.1,0.5-1.1,1.1v2.2
		c0,0.6,0.5,1.1,1.1,1.1h0.7v4.4h-1.4v0.4h1.4v11.8c0,0.4,0.4,0.8,0.8,0.8h2c0.4,0,0.8-0.4,0.8-0.8v-16.6h0.7c0.6,0,1.1-0.5,1.1-1.1
		v-2.2C272.9,493.6,272.4,493.1,271.8,493.1z M272.5,495.6c0,0.4-0.3,0.7-0.7,0.7h-4.9c-0.4,0-0.7-0.3-0.7-0.7c0,0,0-1.5,0-1.5
		c0-0.3,0.3-0.6,0.7-0.6h4.9c0.4,0,0.6,0.3,0.7,0.6C272.5,494.2,272.5,495.6,272.5,495.6z M268,490c0-0.2,0.2-0.4,0.4-0.4h2
		c0.2,0,0.4,0.2,0.4,0.4v3.1H270v-2.8h-1.2v2.8H268V490z M270.7,514.1c0,0.2-0.2,0.4-0.4,0.4h-2c-0.2,0-0.4-0.2-0.4-0.4v-16.6h0.8
		v16.4h1.2v-16.4h0.8V514.1z"/>
	<path class="st0" d="M281.9,504.3h-0.7V490c0-0.4-0.4-0.8-0.8-0.8h-2c-0.4,0-0.8,0.4-0.8,0.8v11.9h-1.4v0.4h1.4v2H277
		c-0.6,0-1.1,0.5-1.1,1.1v2.2c0,0.6,0.5,1.1,1.1,1.1h0.7v5.5c0,0.4,0.4,0.8,0.8,0.8h2c0.4,0,0.8-0.4,0.8-0.8v-5.5h0.7
		c0.6,0,1.1-0.5,1.1-1.1v-2.2C282.9,504.7,282.5,504.3,281.9,504.3z M282.6,506.8c0,0.4-0.3,0.7-0.7,0.7H277c-0.4,0-0.7-0.3-0.7-0.7
		c0,0,0-1.5,0-1.5c0-0.3,0.3-0.6,0.7-0.6h4.9c0.4,0,0.6,0.3,0.7,0.6C282.5,505.3,282.6,506.8,282.6,506.8z M278,490
		c0-0.2,0.2-0.4,0.4-0.4h2c0.2,0,0.4,0.2,0.4,0.4v14.2H280v-13.9h-1.2v13.9H278V490z M280.8,514.1c0,0.2-0.2,0.4-0.4,0.4h-2
		c-0.2,0-0.4-0.2-0.4-0.4v-5.5h0.8v5.3h1.2v-5.3h0.8V514.1z"/>
	<path class="st0" d="M291.9,495.9h-0.7V490c0-0.4-0.4-0.8-0.8-0.8h-2c-0.4,0-0.8,0.4-0.8,0.8v5.9H287c-0.6,0-1.1,0.5-1.1,1.1v2.2
		c0,0.6,0.5,1.1,1.1,1.1h0.7v1.7h-1.4v0.4h1.4v11.8c0,0.4,0.4,0.8,0.8,0.8h2c0.4,0,0.8-0.4,0.8-0.8v-13.9h0.7c0.6,0,1.1-0.5,1.1-1.1
		v-2.2C293,496.4,292.5,495.9,291.9,495.9z M292.6,498.4c0,0.4-0.3,0.7-0.7,0.7H287c-0.4,0-0.7-0.3-0.7-0.7c0,0,0-1.5,0-1.5
		c0-0.3,0.3-0.6,0.7-0.6h4.9c0.4,0,0.6,0.3,0.7,0.6C292.6,496.9,292.6,498.4,292.6,498.4z M288.1,490c0-0.2,0.2-0.4,0.4-0.4h2
		c0.2,0,0.4,0.2,0.4,0.4v5.9h-0.8v-5.5h-1.2v5.5h-0.8V490z M290.8,514.1c0,0.2-0.2,0.4-0.4,0.4h-2c-0.2,0-0.4-0.2-0.4-0.4v-13.9h0.8
		v13.6h1.2v-13.6h0.8V514.1z"/>
</g>
<g>
	<path class="st0" d="M87.8,161.5l-16.9-9.8c-0.4-0.2-0.8-0.2-1.2,0l-16.9,9.8c-0.4,0.2-0.6,0.6-0.6,1V182c0,0.4,0.2,0.8,0.6,1
		l16.9,9.8c0.2,0.1,0.4,0.2,0.6,0.2c0.2,0,0.4-0.1,0.6-0.2l16.9-9.8c0.4-0.2,0.6-0.6,0.6-1l0-6.5c0,0,0,0,0,0l0-6.5c0,0,0,0,0,0
		l0-6.5C88.4,162.1,88.2,161.7,87.8,161.5z M80.7,159.2l-4.7,2.7l-4.7-2.7l4.7-2.7L80.7,159.2z M75,162.5l-4.7,2.7l-4.7-2.7l4.7-2.7
		L75,162.5z M70.3,153.2L75,156l-4.7,2.7l-4.7-2.7L70.3,153.2z M64.6,156.5l4.7,2.7l-4.7,2.7l-4.7-2.7L64.6,156.5z M58.5,184.5
		l-4.7-2.7v-5.5l4.7,2.7V184.5z M58.5,178l-4.7-2.7v-5.5l4.7,2.7V178z M58.5,171.5l-4.7-2.7v-5.5l4.7,2.7V171.5z M54.3,162.5
		l4.7-2.7l4.7,2.7l-4.7,2.7L54.3,162.5z M64.2,187.8l-4.7-2.7v-5.5l4.7,2.7V187.8z M64.2,181.2l-4.7-2.7v-5.5l4.7,2.7L64.2,181.2
		L64.2,181.2z M64.2,174.7l-4.7-2.7v-5.5l4.7,2.7L64.2,174.7L64.2,174.7z M59.9,165.7l4.7-2.7l4.7,2.7l-4.7,2.7L59.9,165.7z
		 M69.8,191l-4.7-2.7v-5.5l4.7,2.7V191z M69.8,184.5l-4.7-2.7v-5.5l4.7,2.7L69.8,184.5L69.8,184.5z M69.8,178l-4.7-2.7v-5.5l4.7,2.7
		L69.8,178L69.8,178z M65.5,169l4.7-2.7L75,169l-4.7,2.7L65.5,169z M75.5,188.3l-4.7,2.7v-5.5l4.7-2.7V188.3z M75.5,181.8l-4.7,2.7
		V179l4.7-2.7C75.5,176.3,75.5,181.8,75.5,181.8z M75.5,175.3l-4.7,2.7v-5.5l4.7-2.7V175.3z M71.2,165.7l4.7-2.7l4.7,2.7l-4.7,2.7
		L71.2,165.7z M81.1,185l-4.7,2.7v-5.5l4.7-2.7V185z M81.1,178.5l-4.7,2.7v-5.5l1.5-0.8l3.3-1.9V178.5z M81.1,172l-4.7,2.7v-5.5
		l4.7-2.7C81.1,166.5,81.1,172,81.1,172z M76.8,162.5l4.7-2.7l4.7,2.7l-4.7,2.7L76.8,162.5z M86.8,181.8l-4.7,2.7V179l4.7-2.7V181.8
		z M86.8,175.3L82,178v-5.5l4.7-2.7V175.3z M86.8,168.7l-4.7,2.7V166l4.7-2.7V168.7z"/>
</g>
<text transform="matrix(1 0 0 1 140.6216 77)" class="st0 st3 st4">You have already uploaded your fiscal data. </text>
<text transform="matrix(1 0 0 1 118.9021 124)" class="st0 st3 st4">Now, you need to perform data mining and analysis.</text>
<text transform="matrix(1 0 0 1 165.2283 174)"><tspan x="0" y="0" class="st0 st3 st4">You can use either the fiscal facts  </tspan><tspan x="-11.4" y="14.4" class="st0 st3 st4">table as-is, or an aggregated view of it.</tspan></text>
<g>
	<path class="st0" d="M444.3,72.2h-5.1c-0.3-1.8-1.8-3.2-3.5-3.2h-17.1c-2,0-3.6,1.8-3.6,4v8.8h-1.4c-0.4,0-0.7,0.4-0.7,0.8v3.2
		c0,0.3,0.1,0.6,0.4,0.7l8.9,5.3v6.7c0,0.3,0.2,0.6,0.4,0.7c0.1,0,0.2,0.1,0.3,0.1c0.2,0,0.4-0.1,0.5-0.2l2.9-3.2
		c0.1-0.1,0.2-0.4,0.2-0.6v-3.5l8.9-5.3c0.2-0.1,0.4-0.4,0.4-0.7v-3.2c0-0.4-0.3-0.8-0.7-0.8h-1.4v-3.2h7.9c2,0,3.6-1.8,3.6-4V73
		C445,72.5,444.7,72.2,444.3,72.2z M434.3,85.2l-8.9,5.3c-0.2,0.1-0.4,0.4-0.4,0.7v3.7l-1.4,1.6v-5.2c0-0.3-0.1-0.6-0.4-0.7
		l-8.9-5.3v-1.9h1.4h17.1h1.4V85.2z M416.4,81.7V73c0-1.3,1-2.4,2.1-2.4h14.3c0,0,0,0.1-0.1,0.1c0,0.1-0.1,0.1-0.1,0.2
		c-0.1,0.1-0.1,0.3-0.2,0.4c0,0.1-0.1,0.2-0.1,0.2c-0.1,0.2-0.1,0.3-0.1,0.5c0,0.1,0,0.1-0.1,0.2c0,0.2-0.1,0.5-0.1,0.7v4.8v4H416.4
		z M433.6,77v-4c0-1.3,1-2.4,2.1-2.4s2.1,1.1,2.1,2.4v1.6c0,0.3,0,0.5,0.1,0.7c0,0.1,0,0.1,0.1,0.2c0,0.2,0.1,0.3,0.1,0.5
		c0,0.1,0.1,0.2,0.1,0.2c0.1,0.1,0.1,0.3,0.2,0.4c0,0.1,0.1,0.1,0.1,0.2c0,0,0,0.1,0.1,0.1C438.6,77,433.6,77,433.6,77z M443.6,74.6
		c0,1.3-1,2.4-2.1,2.4s-2.1-1.1-2.1-2.4v-0.8h4.3V74.6z"/>
	<path class="st0" d="M442.1,102.4c-1,0-1.8,0.5-2.4,1.4l-3.4-1.9c0-0.1,0-0.2,0-0.3c0-1.8-1.3-3.2-2.9-3.2s-2.9,1.4-2.9,3.2
		c0,0.4,0.1,0.7,0.2,1.1l-3.6,3.4c-0.5-0.8-1.3-1.2-2.3-1.2c-0.7,0-1.4,0.3-1.9,0.8l-3.8-2.1c0-0.1,0-0.2,0-0.3
		c0-1.8-1.3-3.2-2.9-3.2s-2.9,1.4-2.9,3.2c0,0.1,0,0.2,0,0.3l-3.9,2.9c-0.5-0.5-1.2-0.8-1.9-0.8c-1.6,0-2.9,1.4-2.9,3.2
		s1.3,3.2,2.9,3.2s2.9-1.4,2.9-3.2c0-0.4-0.1-0.7-0.2-1l3.6-2.7c0.5,0.8,1.4,1.3,2.3,1.3c1,0,1.8-0.5,2.4-1.4l3.5,2
		c-0.1,0.3-0.2,0.7-0.2,1c0,1.8,1.3,3.2,2.9,3.2s2.9-1.4,2.9-3.2c0-0.1,0-0.3,0-0.4l3.9-3.6c0.5,0.5,1.2,0.8,1.9,0.8
		c1,0,1.8-0.5,2.4-1.4l3.4,1.9c0,0.1,0,0.2,0,0.3c0,1.8,1.3,3.2,2.9,3.2s2.9-1.4,2.9-3.2S443.7,102.4,442.1,102.4z M407.9,110.4
		c-0.8,0-1.4-0.7-1.4-1.6c0-0.9,0.6-1.6,1.4-1.6c0.8,0,1.4,0.7,1.4,1.6C409.3,109.7,408.6,110.4,407.9,110.4z M416.4,104.8
		c-0.8,0-1.4-0.7-1.4-1.6c0-0.9,0.6-1.6,1.4-1.6c0.8,0,1.4,0.7,1.4,1.6C417.9,104.1,417.2,104.8,416.4,104.8z M425,109.6
		c-0.8,0-1.4-0.7-1.4-1.6c0-0.9,0.6-1.6,1.4-1.6s1.4,0.7,1.4,1.6C426.4,108.9,425.8,109.6,425,109.6z M433.6,103.2
		c-0.8,0-1.4-0.7-1.4-1.6c0-0.9,0.6-1.6,1.4-1.6c0.8,0,1.4,0.7,1.4,1.6C435,102.5,434.4,103.2,433.6,103.2z M442.1,107.2
		c-0.8,0-1.4-0.7-1.4-1.6c0-0.9,0.6-1.6,1.4-1.6c0.8,0,1.4,0.7,1.4,1.6C443.6,106.5,442.9,107.2,442.1,107.2z"/>
	<rect x="418.6" y="78.6" class="st0" width="2.9" height="1.6"/>
	<rect x="422.9" y="78.6" class="st0" width="2.9" height="1.6"/>
	<rect x="427.1" y="78.6" class="st0" width="2.9" height="1.6"/>
	<rect x="418.6" y="75.4" class="st0" width="2.9" height="1.6"/>
	<rect x="422.9" y="75.4" class="st0" width="2.9" height="1.6"/>
	<rect x="427.1" y="75.4" class="st0" width="2.9" height="1.6"/>
	<rect x="418.6" y="72.2" class="st0" width="2.9" height="1.6"/>
	<rect x="422.9" y="72.2" class="st0" width="2.9" height="1.6"/>
	<rect x="427.1" y="72.2" class="st0" width="2.9" height="1.6"/>
	<rect x="429.3" y="92.9" class="st0" width="1.4" height="1.6"/>
	<rect x="432.1" y="92.9" class="st0" width="1.4" height="1.6"/>
	<rect x="435" y="92.9" class="st0" width="1.4" height="1.6"/>
	<rect x="412.1" y="92.9" class="st0" width="1.4" height="1.6"/>
	<rect x="415" y="92.9" class="st0" width="1.4" height="1.6"/>
	<rect x="417.9" y="92.9" class="st0" width="1.4" height="1.6"/>
</g>
<text transform="matrix(1 0 0 1 176.3093 275)"><tspan x="0" y="0" class="st0 st3 st4">You can adjust the resulting </tspan><tspan x="14.7" y="14.4" class="st0 st3 st4">dataset to your needs.</tspan></text>
<g>
	<g>
		<path class="st0" d="M421,319.5v1h0.9l3.6,6.5v5l3,2V327l3.6-6.5h0.9v-1h-10.5H421L421,319.5z M426.3,331.5V327l-3.6-6.5l8.7,0
			l-3.6,6.5v5.5L426.3,331.5z"/>
		<text transform="matrix(1 0 0 1 370.6665 331)" class="st0 st3 st5">Filter</text>
	</g>
	<g>
		<g>
			<path class="st0" d="M432.2,294l2.1,2.2l2.1,2.3h-2.1v7.5c0,1.1-0.9,2-2.1,2h-0.9h-1.1h-1.8c-0.4,0-0.7-0.3-0.7-0.7l0,0
				c0-0.4,0.3-0.7,0.7-0.7h0.9c0.4,0,0.9-0.5,0.9-0.9v-7.2h-2.1l2.1-2.3L432.2,294z M422.2,308l-2.1-2.2l-2.1-2.2h2.1v-7.5
				c0-1.1,0.9-2.1,2.1-2.1h0.9h1.1h1.8c0.4,0,0.7,0.3,0.7,0.7l0,0c0,0.4-0.3,0.7-0.7,0.7h-0.9c-0.4,0-0.9,0.4-0.9,0.9v7.2h2.1
				l-2.1,2.2L422.2,308z"/>
		</g>
		<text transform="matrix(1 0 0 1 370.6665 305)" class="st0 st3 st5">Sort</text>
	</g>
	<g>
		<g>
			<path class="st0" d="M439,240.9c0-0.9-0.7-1.6-1.6-1.6c-0.3-0.8-0.7-1.5-1.2-2.2c0.3-0.3,0.4-0.8,0.4-1.2c0-1.2-1-2.1-2.1-2.1
				c-0.6,0-1.2,0.3-1.6,0.8c-0.7-0.3-1.5-0.5-2.2-0.6c-0.2-0.5-0.7-0.9-1.3-0.9c-0.6,0-1.2,0.4-1.3,1c-1.6,0.3-3.1,1.1-4.2,2.3
				c-0.2-0.1-0.5-0.2-0.7-0.2c-0.9,0-1.6,0.7-1.6,1.6c0,0.5,0.2,1,0.6,1.2c-0.4,1-0.6,2-0.6,3.1c0,0.3,0,0.6,0.1,1
				c-0.7,0.4-1.1,1.1-1.1,1.9c0,1.2,1,2.1,2.1,2.1c0.2,0,0.4,0,0.5-0.1c0.6,0.8,1.4,1.6,2.3,2.1c0,0.1-0.1,0.2-0.1,0.3
				c0,0.8,0.6,1.4,1.4,1.4c0.5,0,0.9-0.3,1.2-0.7c0.6,0.1,1.2,0.2,1.8,0.2c1.2,0,2.3-0.3,3.3-0.7c0.3,0.4,0.8,0.6,1.3,0.6
				c1,0,1.7-0.8,1.7-1.7c0-0.3-0.1-0.6-0.2-0.9c1.3-1.4,2.1-3.2,2.1-5.2C438.5,242.2,439,241.7,439,240.9z M424.5,244.5
				c0.8-0.4,1.8-0.8,2.8-1.1l-0.5,2.8l-2.3-0.6c0-0.2,0.1-0.3,0.1-0.5C424.6,244.8,424.6,244.7,424.5,244.5z M427.4,247.5l0.1-0.4
				l0.2,0.1L427.4,247.5z M427.6,246.3l0.6-3.2l1.1,1.1l-1.3,2.2L427.6,246.3z M432.4,236.5c0.1,0.4,0.4,0.8,0.7,1.1l-1.1,1.8
				l-0.6-0.1l-0.9-2.4L432.4,236.5z M435.9,240.3l-3.1-0.7l1-1.7c0.2,0.1,0.5,0.1,0.7,0.1c0.4,0,0.9-0.1,1.2-0.4
				c0.4,0.5,0.8,1.1,1,1.8C436.3,239.6,436.1,239.9,435.9,240.3z M433.3,247.2l-3.2-3.1l1.1-1.9c0.1,0,0.3-0.1,0.4-0.1L433.3,247.2
				C433.4,247.1,433.4,247.1,433.3,247.2z M428.2,238.6l-3.3-0.7l3.5-0.6L428.2,238.6z M428.8,239.5l2,0.4l0.3,1l-0.4,0.7
				c-0.6,0.1-1.1,0.3-1.7,0.4c-0.3,0.1-0.5,0.2-0.8,0.3L428.8,239.5z M429.3,242.7c0.3-0.1,0.6-0.2,1-0.3l-0.7,1.1l-0.8-0.7
				C429,242.8,429.1,242.8,429.3,242.7z M432,241l0.4-0.7l2.8,0.6c-0.9,0.1-2,0.3-3.1,0.5L432,241z M430.6,239.1l-1.7-0.4l0.3-1.7
				l0.6-0.1L430.6,239.1z M429.3,236.3l0.1-0.5l0.1,0.4L429.3,236.3z M428.7,235.7l-0.1,0.8l-4,0.7c-0.1-0.1-0.1-0.2-0.2-0.3
				c1-1,2.2-1.7,3.6-2C428.1,235.2,428.4,235.5,428.7,235.7z M424.5,238.5l3.6,0.8l-0.4,2.4l-3.2-3.1
				C424.5,238.6,424.5,238.6,424.5,238.5z M429.8,244.8l3.1,2.9c0,0,0,0.1-0.1,0.1l-4.1-1.1L429.8,244.8z M434.3,246.9
				c-0.1,0-0.1,0-0.2,0l-1.7-4.9c1.3-0.3,2.5-0.4,3.5-0.5c0.2,0.6,0.7,1,1.3,1.1c-0.1,1.8-0.8,3.4-1.9,4.6
				C435,247,434.7,246.9,434.3,246.9z M432.4,235.8l-2,0.4l-0.2-0.6c0.3-0.2,0.5-0.5,0.6-0.8c0.6,0.1,1.3,0.3,1.8,0.5
				C432.4,235.4,432.4,235.6,432.4,235.8z M422.2,242.2c0-1,0.2-1.9,0.5-2.7c0.1,0,0.3,0.1,0.4,0.1c0.3,0,0.6-0.1,0.9-0.3l3.5,3.4
				c-1.2,0.4-2.3,0.9-3.2,1.3c-0.4-0.6-1-1-1.8-1c-0.1,0-0.2,0-0.3,0C422.2,242.7,422.2,242.4,422.2,242.2z M423.7,246.7
				c0.2-0.1,0.4-0.3,0.6-0.6l2.5,0.7l-0.2,1.3c-0.3,0-0.6,0.2-0.9,0.4C424.9,248,424.3,247.5,423.7,246.7z M429.7,249.7
				c-0.6,0-1.1-0.1-1.7-0.2c0,0,0,0,0,0c0-0.4-0.1-0.7-0.4-1l0.7-1.2l4.3,1.2c0,0,0,0.1,0,0.1c0,0.2,0,0.3,0.1,0.5
				C431.7,249.5,430.7,249.7,429.7,249.7z"/>
			<path class="st0" d="M424.9,250.4c-0.1-0.1-0.4-0.2-0.5,0c-0.1,0.1-0.2,0.4,0,0.5c0.9,1,1.6,2.2,2.1,3.7l-1.1-0.1
				c0.7,0.5,1.4,1.4,1.9,2.1c0.1-0.9,0.4-2,0.8-2.7l-0.9,0.6C426.7,252.8,425.9,251.4,424.9,250.4z"/>
			<path class="st0" d="M434.9,250.4c-1,1.1-1.8,2.4-2.2,4l-0.9-0.6c0.4,0.7,0.7,1.8,0.8,2.7c0.5-0.7,1.2-1.6,1.9-2.1l-1.1,0.1
				c0.4-1.4,1.1-2.7,2.1-3.7c0.1-0.1,0.1-0.4,0-0.5C435.2,250.2,435,250.2,434.9,250.4z"/>
			<path class="st0" d="M430.3,253.3c0-0.2-0.2-0.4-0.4-0.4s-0.4,0.2-0.4,0.4v3.2l-0.7-0.3c0.4,0.5,0.8,1.2,1,1.8
				c0.2-0.6,0.6-1.4,1-1.8l-0.7,0.3V253.3z"/>
		</g>
		<text transform="matrix(1 0 0 1 369.6665 247)" class="st0 st3 st5">Aggregate</text>
	</g>
	<g>
		<path class="st0" d="M437.7,274.3l-1.5-1.6l0.1-0.1c0.5-0.6,0.6-1.4,0.1-2.1c0.4-0.5,0.3-1.2-0.1-1.7l-0.8-0.8
			c-0.4-0.5-1.1-0.5-1.6-0.1c-0.6-0.5-1.4-0.4-2,0.1l-0.1,0.1l-1.4-1.5c-0.4-0.5-1.1-0.5-1.6,0c-0.4,0.5-0.4,1.2,0,1.7l1.4,1.5
			l-1.2,1.3c-0.5,0.6-0.6,1.4-0.1,2.1l-2.3,2.5c-0.4,0.4-0.5,0.9-0.3,1.4l-1.1,1.1l-0.2-0.1c-0.2-0.1-0.5,0-0.6,0.3
			c-0.1,0.2,0,0.4,0.1,0.5c0,0,0,0,0,0l-0.4,0.4l-0.2-0.1c-0.2-0.1-0.5,0-0.6,0.3c-0.1,0.2,0,0.4,0.1,0.5c0,0,0,0,0,0l-0.4,0.4
			l-0.2-0.1c-0.2-0.1-0.5,0-0.6,0.3c-0.1,0.2,0,0.4,0.1,0.5c0,0,0,0,0,0l-0.4,0.4l-0.2-0.1c-0.2-0.1-0.5,0-0.6,0.3
			c-0.1,0.2,0,0.4,0.1,0.5c0,0,0,0,0,0l-0.1,0.1c-0.1,0.1-0.1,0.1-0.1,0.2l-0.3,1.1c0,0.2,0,0.3,0.1,0.4c0.1,0.1,0.3,0.2,0.4,0.1
			l1.1-0.3c0.1,0,0.1-0.1,0.2-0.1l0.7-0.8l0.2,0.1c0.2,0.1,0.5,0,0.6-0.3c0.1-0.2,0-0.4-0.1-0.5l0.4-0.4l0.2,0.1
			c0.2,0.1,0.5,0,0.6-0.3c0.1-0.2,0-0.3-0.1-0.5l0.4-0.4l0.2,0.1c0.2,0.1,0.5,0,0.6-0.3c0.1-0.2,0-0.4-0.1-0.5l0.4-0.4l0.2,0.1
			c0.2,0.1,0.5,0,0.6-0.3c0.1-0.2,0-0.4-0.1-0.5l0.4-0.5c0.5,0.2,1.1,0.2,1.4-0.3l2.3-2.5c0.6,0.5,1.4,0.4,1.9-0.2l1.2-1.3l1.5,1.6
			c0.4,0.5,1.1,0.5,1.6,0C438.1,275.5,438.1,274.8,437.7,274.3z M422.2,283l-0.3,0.1l0.1-0.3l0.3-0.3l0.3,0.1L422.2,283z
			 M423.2,281.9l-0.3-0.1l0.4-0.4l0.3,0.1L423.2,281.9z M424.3,280.8l-0.3-0.1l0.4-0.4l0.3,0.1L424.3,280.8z M425.3,279.7l-0.3-0.1
			l0.4-0.4l0.3,0.1L425.3,279.7z M433.9,269.1l0.5-0.5c0,0,0.1-0.1,0.2-0.1c0.1,0,0.3,0,0.4,0.1l0.8,0.8c0.1,0.1,0.1,0.3,0.1,0.4
			c0,0.1,0,0.1-0.1,0.2l-0.5,0.5l-1.7,1.8c-0.1,0.1-0.4,0.1-0.5,0l-0.8-0.8c-0.2-0.2-0.2-0.4,0-0.6L433.9,269.1z M429.4,267.7
			c-0.1-0.1-0.1-0.3,0-0.4c0.1-0.1,0.3-0.1,0.4,0l1.4,1.5l-0.4,0.4L429.4,267.7z M426.3,278.6l-0.3-0.1l0.7-0.7l0.2,0.2L426.3,278.6
			z M428.4,277.7c-0.2,0.2-0.4,0.2-0.6,0l0,0l-0.7-0.7c-0.2-0.2-0.2-0.4,0-0.6l2.3-2.5l1.3,1.4L428.4,277.7z M432.7,275
			c-0.2,0.3-0.7,0.3-0.9,0l-2.2-2.3c-0.2-0.3-0.2-0.7,0-1l2.9-3.1c0.2-0.2,0.5-0.2,0.7-0.1l-1.6,1.7c-0.5,0.5-0.5,1.3,0,1.8l0.8,0.8
			c0.5,0.5,1.3,0.5,1.7,0l1.6-1.7c0.1,0.3,0.1,0.6-0.1,0.8L432.7,275z M437.1,275.3c-0.1,0.1-0.3,0.1-0.4,0l-1.5-1.6l0.4-0.4
			l1.5,1.6C437.2,275.1,437.2,275.2,437.1,275.3z"/>
		<text transform="matrix(1 0 0 1 368.6665 277)" class="st0 st3 st5">Drill down</text>
	</g>
</g>
<text transform="matrix(1 0 0 1 175.115 442)"><tspan x="0" y="0" class="st0 st3 st4">You can combine the dataset  </tspan><tspan x="3.7" y="14.4" class="st0 st3 st4">with additional parameters...</tspan></text>
<text transform="matrix(1 0 0 1 148.8479 568)" class="st0 st3 st4">...and submit it to the analysis algorithm.</text>
<text transform="matrix(1 0 0 1 119.2786 694)"><tspan x="0" y="0" class="st0 st3 st4">The outcome of the process is a set of visualizations. </tspan><tspan x="-8.6" y="14.4" class="st0 st3 st4">You can modify the dataset and parameters and repeat.</tspan></text>
<g>
	<g>
		<path class="st0" d="M60,295.5v1.2h1.2l4.6,8.4v6.4l3.8,2.5v-8.9l4.6-8.4h1.2v-1.2H61.9H60L60,295.5z M66.7,310.9v-5.8l-4.6-8.4
			l11.1,0l-4.6,8.4v7L66.7,310.9z"/>
		<text transform="matrix(1 0 0 1 85.6665 308)" class="st0 st3 st5">Filter</text>
	</g>
	<g>
		<g>
			<path class="st0" d="M72.9,270.4l2,2.2l2,2.2h-2.1v7.3c0,1.1-0.9,2-2,2H72h-1.1h-1.8c-0.4,0-0.7-0.3-0.7-0.7l0,0
				c0-0.4,0.3-0.7,0.7-0.7H70c0.4,0,0.9-0.5,0.9-0.9v-7h-2.1l2-2.2L72.9,270.4z M63.1,284.1l-2-2.2l-2-2.2h2.1v-7.3c0-1.1,0.9-2,2-2
				H64h1.1h1.8c0.4,0,0.7,0.3,0.7,0.7l0,0c0,0.4-0.3,0.7-0.7,0.7H66c-0.4,0-0.9,0.4-0.9,0.9v7.1h2.1l-2,2.2L63.1,284.1z"/>
		</g>
		<text transform="matrix(1 0 0 1 85.6665 281)" class="st0 st3 st5">Sort</text>
	</g>
	<g>
		<g transform="translate(0,-952.36218)">
			<path class="st0" d="M61.5,1192.4c-0.8,0-1.5,0.7-1.5,1.5v1.9c0,0.8,0.7,1.5,1.5,1.5h1.9c0.8,0,1.5-0.7,1.5-1.5v-1.9
				c0-0.8-0.7-1.5-1.5-1.5H61.5z M67,1192.4c-0.8,0-1.5,0.7-1.5,1.5v13.1c0,0.8,0.7,1.5,1.5,1.5H69c0.8,0,1.5-0.7,1.5-1.5v-13.1
				c0-0.8-0.7-1.5-1.5-1.5H67z M72.6,1192.4c-0.8,0-1.5,0.7-1.5,1.5v1.9c0,0.8,0.7,1.5,1.5,1.5h1.9c0.8,0,1.5-0.7,1.5-1.5v-1.9
				c0-0.8-0.7-1.5-1.5-1.5H72.6z M61.5,1193.3h1.9c0.3,0,0.5,0.2,0.5,0.5v1.9c0,0.3-0.2,0.5-0.5,0.5h-1.9c-0.3,0-0.5-0.2-0.5-0.5
				v-1.9C61,1193.5,61.2,1193.3,61.5,1193.3z M67,1193.3H69c0.3,0,0.5,0.2,0.5,0.5v13.1c0,0.3-0.2,0.5-0.5,0.5H67
				c-0.3,0-0.5-0.2-0.5-0.5v-13.1C66.5,1193.5,66.8,1193.3,67,1193.3z M72.6,1193.3h1.9c0.3,0,0.5,0.2,0.5,0.5v1.9
				c0,0.3-0.2,0.5-0.5,0.5h-1.9c-0.3,0-0.5-0.2-0.5-0.5v-1.9C72.1,1193.5,72.3,1193.3,72.6,1193.3z M61.5,1197.9
				c-0.8,0-1.5,0.7-1.5,1.5v1.9c0,0.8,0.7,1.5,1.5,1.5h1.9c0.8,0,1.5-0.7,1.5-1.5v-1.9c0-0.8-0.7-1.5-1.5-1.5H61.5z M72.6,1197.9
				c-0.8,0-1.5,0.7-1.5,1.5v1.9c0,0.8,0.7,1.5,1.5,1.5h1.9c0.8,0,1.5-0.7,1.5-1.5v-1.9c0-0.8-0.7-1.5-1.5-1.5H72.6z M61.5,1198.9
				h1.9c0.3,0,0.5,0.2,0.5,0.5v1.9c0,0.3-0.2,0.5-0.5,0.5h-1.9c-0.3,0-0.5-0.2-0.5-0.5v-1.9C61,1199.1,61.2,1198.9,61.5,1198.9z
				 M72.6,1198.9h1.9c0.3,0,0.5,0.2,0.5,0.5v1.9c0,0.3-0.2,0.5-0.5,0.5h-1.9c-0.3,0-0.5-0.2-0.5-0.5v-1.9
				C72.1,1199.1,72.3,1198.9,72.6,1198.9z M61.5,1203.5c-0.8,0-1.5,0.7-1.5,1.5v1.9c0,0.8,0.7,1.5,1.5,1.5h1.9
				c0.8,0,1.5-0.7,1.5-1.5v-1.9c0-0.8-0.7-1.5-1.5-1.5H61.5z M72.6,1203.5c-0.8,0-1.5,0.7-1.5,1.5v1.9c0,0.8,0.7,1.5,1.5,1.5h1.9
				c0.8,0,1.5-0.7,1.5-1.5v-1.9c0-0.8-0.7-1.5-1.5-1.5H72.6z M61.5,1204.5h1.9c0.3,0,0.5,0.2,0.5,0.5v1.9c0,0.3-0.2,0.5-0.5,0.5
				h-1.9c-0.3,0-0.5-0.2-0.5-0.5v-1.9C61,1204.7,61.2,1204.5,61.5,1204.5z M72.6,1204.5h1.9c0.3,0,0.5,0.2,0.5,0.5v1.9
				c0,0.3-0.2,0.5-0.5,0.5h-1.9c-0.3,0-0.5-0.2-0.5-0.5v-1.9C72.1,1204.7,72.3,1204.5,72.6,1204.5z"/>
		</g>
		<text transform="matrix(1 0 0 1 85.6665 253)" class="st0 st3 st5">Select</text>
	</g>
</g>
<text transform="matrix(1 0 0 1 200.3569 528)"><tspan x="0" y="0" class="st0 st3 st5">Column </tspan><tspan x="-1.9" y="12" class="st0 st3 st5">selectors</tspan></text>
<text transform="matrix(1 0 0 1 262.6465 528)"><tspan x="0" y="0" class="st0 st3 st5">Numeric </tspan><tspan x="-6" y="12" class="st0 st3 st5">parameters</tspan></text>
<text transform="matrix(1 0 0 1 61.6665 220)" class="st0 st6 st5">Facts</text>
<text transform="matrix(1 0 0 1 404.6665 220)" class="st0 st6 st5">Aggregated</text>
<g>
	<g>
		<path class="st0" d="M273.1,352.3h-48c-0.3,0-0.5,0.2-0.5,0.5v36c0,0.3,0.2,0.5,0.5,0.5h48c0.3,0,0.5-0.2,0.5-0.5v-36
			C273.6,352.6,273.4,352.3,273.1,352.3z M272.6,358.3h-15v-5h15V358.3z M241.6,358.3v-5h15v5H241.6z M256.6,359.3v29h-15v-29H256.6
			z M240.6,353.3v5h-15v-5H240.6z M225.6,359.3h15v29h-15V359.3z M257.6,388.3v-29h15v29H257.6z"/>
		<path class="st0" d="M235.1,370.3h-4c-0.3,0-0.5,0.2-0.5,0.5s0.2,0.5,0.5,0.5h4c0.3,0,0.5-0.2,0.5-0.5S235.4,370.3,235.1,370.3z"
			/>
		<path class="st0" d="M235.1,376.3h-4c-0.3,0-0.5,0.2-0.5,0.5s0.2,0.5,0.5,0.5h4c0.3,0,0.5-0.2,0.5-0.5S235.4,376.3,235.1,376.3z"
			/>
		<path class="st0" d="M235.1,382.3h-4c-0.3,0-0.5,0.2-0.5,0.5s0.2,0.5,0.5,0.5h4c0.3,0,0.5-0.2,0.5-0.5S235.4,382.3,235.1,382.3z"
			/>
		<path class="st0" d="M247.1,371.3h4c0.3,0,0.5-0.2,0.5-0.5s-0.2-0.5-0.5-0.5h-4c-0.3,0-0.5,0.2-0.5,0.5S246.9,371.3,247.1,371.3z"
			/>
		<path class="st0" d="M247.1,377.3h4c0.3,0,0.5-0.2,0.5-0.5s-0.2-0.5-0.5-0.5h-4c-0.3,0-0.5,0.2-0.5,0.5S246.9,377.3,247.1,377.3z"
			/>
		<path class="st0" d="M251.1,382.3h-4c-0.3,0-0.5,0.2-0.5,0.5s0.2,0.5,0.5,0.5h4c0.3,0,0.5-0.2,0.5-0.5S251.4,382.3,251.1,382.3z"
			/>
		<path class="st0" d="M267.1,370.3h-4c-0.3,0-0.5,0.2-0.5,0.5s0.2,0.5,0.5,0.5h4c0.3,0,0.5-0.2,0.5-0.5S267.4,370.3,267.1,370.3z"
			/>
		<path class="st0" d="M267.1,376.3h-4c-0.3,0-0.5,0.2-0.5,0.5s0.2,0.5,0.5,0.5h4c0.3,0,0.5-0.2,0.5-0.5S267.4,376.3,267.1,376.3z"
			/>
		<path class="st0" d="M267.1,382.3h-4c-0.3,0-0.5,0.2-0.5,0.5s0.2,0.5,0.5,0.5h4c0.3,0,0.5-0.2,0.5-0.5S267.4,382.3,267.1,382.3z"
			/>
		<path class="st0" d="M231.1,365.3h4c0.3,0,0.5-0.2,0.5-0.5s-0.2-0.5-0.5-0.5h-4c-0.3,0-0.5,0.2-0.5,0.5S230.9,365.3,231.1,365.3z"
			/>
		<path class="st0" d="M247.1,365.3h4c0.3,0,0.5-0.2,0.5-0.5s-0.2-0.5-0.5-0.5h-4c-0.3,0-0.5,0.2-0.5,0.5S246.9,365.3,247.1,365.3z"
			/>
		<path class="st0" d="M267.1,364.3h-4c-0.3,0-0.5,0.2-0.5,0.5s0.2,0.5,0.5,0.5h4c0.3,0,0.5-0.2,0.5-0.5S267.4,364.3,267.1,364.3z"
			/>
	</g>
</g>
</svg>
